{
	"asset":{
		"generator":"Khronos glTF Blender I/O v5.0.21",
		"version":"2.0"
	},
	"extensionsUsed":[
		"KHR_materials_specular"
	],
	"scene":0,
	"scenes":[
		{
			"name":"Scene",
			"nodes":[
				0
			]
		}
	],
	"nodes":[
		{
			"mesh":0,
			"name":"Object_1487",
			"rotation":[
				-0.5,
				0.5000000596046448,
				-0.5,
				0.4999999403953552
			],
			"translation":[
				-6.309719085693359,
				9.969356536865234,
				-14.033790588378906
			]
		}
	],
	"materials":[
		{
			"doubleSided":true,
			"name":"Wall_3.056_5",
			"normalTexture":{
				"index":0
			},
			"pbrMetallicRoughness":{
				"baseColorTexture":{
					"index":1
				},
				"metallicFactor":0,
				"metallicRoughnessTexture":{
					"index":2
				}
			}
		},
		{
			"doubleSided":true,
			"name":"Wall_3.056",
			"normalTexture":{
				"index":3
			},
			"pbrMetallicRoughness":{
				"baseColorTexture":{
					"index":4
				},
				"metallicRoughnessTexture":{
					"index":5
				}
			}
		},
		{
			"doubleSided":true,
			"name":"Wall_3.056_0",
			"normalTexture":{
				"index":6
			},
			"occlusionTexture":{
				"index":7
			},
			"pbrMetallicRoughness":{
				"baseColorTexture":{
					"index":8
				},
				"metallicFactor":0,
				"metallicRoughnessTexture":{
					"index":7
				}
			}
		},
		{
			"doubleSided":true,
			"name":"Wall_3.056_1",
			"normalTexture":{
				"index":9
			},
			"occlusionTexture":{
				"index":10
			},
			"pbrMetallicRoughness":{
				"baseColorTexture":{
					"index":11
				},
				"metallicFactor":0,
				"metallicRoughnessTexture":{
					"index":10
				}
			}
		},
		{
			"doubleSided":true,
			"name":"Wall_3.056_2",
			"normalTexture":{
				"index":12
			},
			"occlusionTexture":{
				"index":13
			},
			"pbrMetallicRoughness":{
				"baseColorTexture":{
					"index":14
				},
				"metallicFactor":0,
				"metallicRoughnessTexture":{
					"index":13
				}
			}
		},
		{
			"doubleSided":true,
			"emissiveFactor":[
				1,
				1,
				1
			],
			"emissiveTexture":{
				"index":15
			},
			"name":"streetLightslightColors.048",
			"normalTexture":{
				"index":16
			},
			"occlusionTexture":{
				"index":17
			},
			"pbrMetallicRoughness":{
				"baseColorTexture":{
					"index":18
				},
				"metallicFactor":0,
				"metallicRoughnessTexture":{
					"index":17
				}
			}
		},
		{
			"doubleSided":true,
			"name":"Wall_3.056_3",
			"normalTexture":{
				"index":19
			},
			"occlusionTexture":{
				"index":20
			},
			"pbrMetallicRoughness":{
				"baseColorTexture":{
					"index":21
				},
				"metallicFactor":0,
				"metallicRoughnessTexture":{
					"index":20
				}
			}
		},
		{
			"doubleSided":true,
			"name":"Wall_3.056_4",
			"normalTexture":{
				"index":22
			},
			"pbrMetallicRoughness":{
				"baseColorTexture":{
					"index":23
				},
				"metallicFactor":0,
				"metallicRoughnessTexture":{
					"index":24
				}
			}
		},
		{
			"doubleSided":true,
			"name":"Wall_3.056_6",
			"normalTexture":{
				"index":25
			},
			"pbrMetallicRoughness":{
				"baseColorTexture":{
					"index":26
				},
				"metallicFactor":0
			}
		},
		{
			"alphaMode":"BLEND",
			"name":"Wall_3.056_7",
			"normalTexture":{
				"index":27
			},
			"pbrMetallicRoughness":{
				"baseColorTexture":{
					"index":28
				},
				"metallicFactor":0
			}
		},
		{
			"doubleSided":true,
			"emissiveFactor":[
				1,
				1,
				1
			],
			"emissiveTexture":{
				"index":29
			},
			"name":"streetLightslightColors.048_0",
			"normalTexture":{
				"index":30
			},
			"pbrMetallicRoughness":{
				"baseColorTexture":{
					"index":31
				},
				"metallicFactor":0,
				"metallicRoughnessTexture":{
					"index":32
				}
			}
		},
		{
			"doubleSided":true,
			"name":"Wall_3.056_8",
			"normalTexture":{
				"index":33
			},
			"pbrMetallicRoughness":{
				"baseColorTexture":{
					"index":34
				},
				"metallicFactor":0
			}
		},
		{
			"doubleSided":true,
			"name":"Wall_3.056_9",
			"normalTexture":{
				"index":35
			},
			"pbrMetallicRoughness":{
				"baseColorTexture":{
					"index":36
				},
				"metallicFactor":0
			}
		},
		{
			"doubleSided":true,
			"name":"Wall_3.056_10",
			"normalTexture":{
				"index":37
			},
			"occlusionTexture":{
				"index":38
			},
			"pbrMetallicRoughness":{
				"baseColorTexture":{
					"index":39
				},
				"metallicFactor":0,
				"metallicRoughnessTexture":{
					"index":38
				}
			}
		},
		{
			"doubleSided":true,
			"name":"Wall_3.056_11",
			"normalTexture":{
				"index":40
			},
			"occlusionTexture":{
				"index":41
			},
			"pbrMetallicRoughness":{
				"baseColorTexture":{
					"index":42
				},
				"metallicFactor":0,
				"metallicRoughnessTexture":{
					"index":41
				}
			}
		},
		{
			"doubleSided":true,
			"name":"Wall_3.056_12",
			"normalTexture":{
				"index":43
			},
			"occlusionTexture":{
				"index":44
			},
			"pbrMetallicRoughness":{
				"baseColorTexture":{
					"index":45
				},
				"metallicFactor":0,
				"metallicRoughnessTexture":{
					"index":44
				}
			}
		},
		{
			"doubleSided":true,
			"name":"Wall_3.056_13",
			"normalTexture":{
				"index":46
			},
			"occlusionTexture":{
				"index":47
			},
			"pbrMetallicRoughness":{
				"baseColorTexture":{
					"index":48
				},
				"metallicFactor":0,
				"metallicRoughnessTexture":{
					"index":47
				}
			}
		},
		{
			"doubleSided":true,
			"emissiveFactor":[
				1,
				1,
				1
			],
			"emissiveTexture":{
				"index":49,
				"texCoord":1
			},
			"name":"streetLightslightColors.048_1",
			"pbrMetallicRoughness":{
				"baseColorTexture":{
					"index":50
				}
			}
		},
		{
			"alphaMode":"BLEND",
			"doubleSided":true,
			"extensions":{
				"KHR_materials_specular":{
					"specularFactor":0.1559160053730011
				}
			},
			"name":"Wall_3.056_14",
			"normalTexture":{
				"index":51
			},
			"occlusionTexture":{
				"index":52
			},
			"pbrMetallicRoughness":{
				"baseColorTexture":{
					"index":53
				},
				"metallicFactor":0,
				"metallicRoughnessTexture":{
					"index":52
				}
			}
		},
		{
			"doubleSided":true,
			"extensions":{
				"KHR_materials_specular":{
					"specularFactor":0.12677299976348877
				}
			},
			"name":"Wall_3.056_15",
			"normalTexture":{
				"index":54
			},
			"occlusionTexture":{
				"index":55
			},
			"pbrMetallicRoughness":{
				"baseColorTexture":{
					"index":56
				},
				"metallicFactor":0,
				"metallicRoughnessTexture":{
					"index":55
				}
			}
		},
		{
			"doubleSided":true,
			"name":"Wall_3.056_16",
			"normalTexture":{
				"index":57
			},
			"pbrMetallicRoughness":{
				"baseColorTexture":{
					"index":58
				},
				"metallicFactor":0,
				"metallicRoughnessTexture":{
					"index":59
				}
			}
		},
		{
			"doubleSided":true,
			"name":"Wall_3.056_17",
			"normalTexture":{
				"index":60
			},
			"pbrMetallicRoughness":{
				"baseColorTexture":{
					"index":61
				}
			}
		},
		{
			"doubleSided":true,
			"name":"Wall_3.056_18",
			"normalTexture":{
				"index":62
			},
			"pbrMetallicRoughness":{
				"baseColorTexture":{
					"index":63
				},
				"metallicFactor":0
			}
		},
		{
			"doubleSided":true,
			"name":"Wall_3.056_19",
			"normalTexture":{
				"index":64
			},
			"pbrMetallicRoughness":{
				"baseColorTexture":{
					"index":65
				},
				"metallicFactor":0
			}
		},
		{
			"doubleSided":true,
			"name":"Wall_3.056_20",
			"normalTexture":{
				"index":66
			},
			"pbrMetallicRoughness":{
				"baseColorTexture":{
					"index":67
				}
			}
		}
	],
	"meshes":[
		{
			"name":"Object_1068",
			"primitives":[
				{
					"attributes":{
						"POSITION":0,
						"NORMAL":1,
						"TEXCOORD_0":2,
						"TEXCOORD_1":3,
						"TEXCOORD_2":4,
						"TEXCOORD_3":5,
						"TEXCOORD_4":6,
						"TEXCOORD_5":7,
						"TEXCOORD_6":8
					},
					"indices":9,
					"material":0
				},
				{
					"attributes":{
						"POSITION":10,
						"NORMAL":11,
						"TEXCOORD_0":12,
						"TEXCOORD_1":13,
						"TEXCOORD_2":14,
						"TEXCOORD_3":15,
						"TEXCOORD_4":16,
						"TEXCOORD_5":17,
						"TEXCOORD_6":18
					},
					"indices":19,
					"material":1
				},
				{
					"attributes":{
						"POSITION":20,
						"NORMAL":21,
						"TEXCOORD_0":22,
						"TEXCOORD_1":23,
						"TEXCOORD_2":24,
						"TEXCOORD_3":25,
						"TEXCOORD_4":26,
						"TEXCOORD_5":27,
						"TEXCOORD_6":28
					},
					"indices":29,
					"material":2
				},
				{
					"attributes":{
						"POSITION":30,
						"NORMAL":31,
						"TEXCOORD_0":32,
						"TEXCOORD_1":33,
						"TEXCOORD_2":34,
						"TEXCOORD_3":35,
						"TEXCOORD_4":36,
						"TEXCOORD_5":37,
						"TEXCOORD_6":38
					},
					"indices":39,
					"material":3
				},
				{
					"attributes":{
						"POSITION":40,
						"NORMAL":41,
						"TEXCOORD_0":42,
						"TEXCOORD_1":43,
						"TEXCOORD_2":44,
						"TEXCOORD_3":45,
						"TEXCOORD_4":46,
						"TEXCOORD_5":47,
						"TEXCOORD_6":48
					},
					"indices":49,
					"material":4
				},
				{
					"attributes":{
						"POSITION":50,
						"NORMAL":51,
						"TEXCOORD_0":52,
						"TEXCOORD_1":53,
						"TEXCOORD_2":54,
						"TEXCOORD_3":55,
						"TEXCOORD_4":56,
						"TEXCOORD_5":57,
						"TEXCOORD_6":58
					},
					"indices":59,
					"material":5
				},
				{
					"attributes":{
						"POSITION":60,
						"NORMAL":61,
						"TEXCOORD_0":62,
						"TEXCOORD_1":63,
						"TEXCOORD_2":64,
						"TEXCOORD_3":65,
						"TEXCOORD_4":66,
						"TEXCOORD_5":67,
						"TEXCOORD_6":68
					},
					"indices":69,
					"material":6
				},
				{
					"attributes":{
						"POSITION":70,
						"NORMAL":71,
						"TEXCOORD_0":72,
						"TEXCOORD_1":73,
						"TEXCOORD_2":74,
						"TEXCOORD_3":75,
						"TEXCOORD_4":76,
						"TEXCOORD_5":77,
						"TEXCOORD_6":78
					},
					"indices":79,
					"material":7
				},
				{
					"attributes":{
						"POSITION":80,
						"NORMAL":81,
						"TEXCOORD_0":82,
						"TEXCOORD_1":83,
						"TEXCOORD_2":84,
						"TEXCOORD_3":85,
						"TEXCOORD_4":86,
						"TEXCOORD_5":87,
						"TEXCOORD_6":88
					},
					"indices":89,
					"material":8
				},
				{
					"attributes":{
						"POSITION":90,
						"NORMAL":91,
						"TEXCOORD_0":92,
						"TEXCOORD_1":93,
						"TEXCOORD_2":94,
						"TEXCOORD_3":95,
						"TEXCOORD_4":96,
						"TEXCOORD_5":97,
						"TEXCOORD_6":98
					},
					"indices":99,
					"material":9
				},
				{
					"attributes":{
						"POSITION":100,
						"NORMAL":101,
						"TEXCOORD_0":102,
						"TEXCOORD_1":103,
						"TEXCOORD_2":104,
						"TEXCOORD_3":105,
						"TEXCOORD_4":106,
						"TEXCOORD_5":107,
						"TEXCOORD_6":108
					},
					"indices":109,
					"material":10
				},
				{
					"attributes":{
						"POSITION":110,
						"NORMAL":111,
						"TEXCOORD_0":112,
						"TEXCOORD_1":113,
						"TEXCOORD_2":114,
						"TEXCOORD_3":115,
						"TEXCOORD_4":116,
						"TEXCOORD_5":117,
						"TEXCOORD_6":118
					},
					"indices":119,
					"material":11
				},
				{
					"attributes":{
						"POSITION":120,
						"NORMAL":121,
						"TEXCOORD_0":122,
						"TEXCOORD_1":123,
						"TEXCOORD_2":124,
						"TEXCOORD_3":125,
						"TEXCOORD_4":126,
						"TEXCOORD_5":127,
						"TEXCOORD_6":128
					},
					"indices":129,
					"material":12
				},
				{
					"attributes":{
						"POSITION":130,
						"NORMAL":131,
						"TEXCOORD_0":132,
						"TEXCOORD_1":133,
						"TEXCOORD_2":134,
						"TEXCOORD_3":135,
						"TEXCOORD_4":136,
						"TEXCOORD_5":137,
						"TEXCOORD_6":138
					},
					"indices":139,
					"material":13
				},
				{
					"attributes":{
						"POSITION":140,
						"NORMAL":141,
						"TEXCOORD_0":142,
						"TEXCOORD_1":143,
						"TEXCOORD_2":144,
						"TEXCOORD_3":145,
						"TEXCOORD_4":146,
						"TEXCOORD_5":147,
						"TEXCOORD_6":148
					},
					"indices":149,
					"material":14
				},
				{
					"attributes":{
						"POSITION":150,
						"NORMAL":151,
						"TEXCOORD_0":152,
						"TEXCOORD_1":153,
						"TEXCOORD_2":154,
						"TEXCOORD_3":155,
						"TEXCOORD_4":156,
						"TEXCOORD_5":157,
						"TEXCOORD_6":158
					},
					"indices":159,
					"material":15
				},
				{
					"attributes":{
						"POSITION":160,
						"NORMAL":161,
						"TEXCOORD_0":162,
						"TEXCOORD_1":163,
						"TEXCOORD_2":164,
						"TEXCOORD_3":165,
						"TEXCOORD_4":166,
						"TEXCOORD_5":167,
						"TEXCOORD_6":168
					},
					"indices":169,
					"material":16
				},
				{
					"attributes":{
						"POSITION":170,
						"NORMAL":171,
						"TEXCOORD_0":172,
						"TEXCOORD_1":173,
						"TEXCOORD_2":174,
						"TEXCOORD_3":175,
						"TEXCOORD_4":176,
						"TEXCOORD_5":177,
						"TEXCOORD_6":178
					},
					"indices":179,
					"material":17
				},
				{
					"attributes":{
						"POSITION":180,
						"NORMAL":181,
						"TEXCOORD_0":182,
						"TEXCOORD_1":183,
						"TEXCOORD_2":184,
						"TEXCOORD_3":185,
						"TEXCOORD_4":186,
						"TEXCOORD_5":187,
						"TEXCOORD_6":188
					},
					"indices":189,
					"material":18
				},
				{
					"attributes":{
						"POSITION":190,
						"NORMAL":191,
						"TEXCOORD_0":192,
						"TEXCOORD_1":193,
						"TEXCOORD_2":194,
						"TEXCOORD_3":195,
						"TEXCOORD_4":196,
						"TEXCOORD_5":197,
						"TEXCOORD_6":198
					},
					"indices":199,
					"material":19
				},
				{
					"attributes":{
						"POSITION":200,
						"NORMAL":201,
						"TEXCOORD_0":202,
						"TEXCOORD_1":203,
						"TEXCOORD_2":204,
						"TEXCOORD_3":205,
						"TEXCOORD_4":206,
						"TEXCOORD_5":207,
						"TEXCOORD_6":208
					},
					"indices":209,
					"material":20
				},
				{
					"attributes":{
						"POSITION":210,
						"NORMAL":211,
						"TEXCOORD_0":212,
						"TEXCOORD_1":213,
						"TEXCOORD_2":214,
						"TEXCOORD_3":215,
						"TEXCOORD_4":216,
						"TEXCOORD_5":217,
						"TEXCOORD_6":218
					},
					"indices":219,
					"material":21
				},
				{
					"attributes":{
						"POSITION":220,
						"NORMAL":221,
						"TEXCOORD_0":222,
						"TEXCOORD_1":223,
						"TEXCOORD_2":224,
						"TEXCOORD_3":225,
						"TEXCOORD_4":226,
						"TEXCOORD_5":227,
						"TEXCOORD_6":228
					},
					"indices":229,
					"material":22
				},
				{
					"attributes":{
						"POSITION":230,
						"NORMAL":231,
						"TEXCOORD_0":232,
						"TEXCOORD_1":233,
						"TEXCOORD_2":234,
						"TEXCOORD_3":235,
						"TEXCOORD_4":236,
						"TEXCOORD_5":237,
						"TEXCOORD_6":238
					},
					"indices":239,
					"material":23
				},
				{
					"attributes":{
						"POSITION":240,
						"NORMAL":241,
						"TEXCOORD_0":242,
						"TEXCOORD_1":243,
						"TEXCOORD_2":244,
						"TEXCOORD_3":245,
						"TEXCOORD_4":246,
						"TEXCOORD_5":247,
						"TEXCOORD_6":248
					},
					"indices":249,
					"material":24
				}
			]
		}
	],
	"textures":[
		{
			"sampler":0,
			"source":0
		},
		{
			"sampler":0,
			"source":1
		},
		{
			"sampler":0,
			"source":2
		},
		{
			"sampler":0,
			"source":3
		},
		{
			"sampler":0,
			"source":4
		},
		{
			"sampler":0,
			"source":5
		},
		{
			"sampler":0,
			"source":6
		},
		{
			"sampler":0,
			"source":7
		},
		{
			"sampler":0,
			"source":8
		},
		{
			"sampler":0,
			"source":9
		},
		{
			"sampler":0,
			"source":10
		},
		{
			"sampler":0,
			"source":11
		},
		{
			"sampler":0,
			"source":12
		},
		{
			"sampler":0,
			"source":13
		},
		{
			"sampler":0,
			"source":14
		},
		{
			"sampler":0,
			"source":15
		},
		{
			"sampler":0,
			"source":16
		},
		{
			"sampler":0,
			"source":17
		},
		{
			"sampler":0,
			"source":18
		},
		{
			"sampler":0,
			"source":19
		},
		{
			"sampler":0,
			"source":20
		},
		{
			"sampler":0,
			"source":21
		},
		{
			"sampler":0,
			"source":22
		},
		{
			"sampler":0,
			"source":23
		},
		{
			"sampler":0,
			"source":24
		},
		{
			"sampler":0,
			"source":25
		},
		{
			"sampler":0,
			"source":26
		},
		{
			"sampler":0,
			"source":27
		},
		{
			"sampler":0,
			"source":28
		},
		{
			"sampler":0,
			"source":29
		},
		{
			"sampler":0,
			"source":30
		},
		{
			"sampler":0,
			"source":31
		},
		{
			"sampler":0,
			"source":32
		},
		{
			"sampler":0,
			"source":33
		},
		{
			"sampler":0,
			"source":34
		},
		{
			"sampler":0,
			"source":35
		},
		{
			"sampler":0,
			"source":36
		},
		{
			"sampler":0,
			"source":19
		},
		{
			"sampler":0,
			"source":37
		},
		{
			"sampler":0,
			"source":21
		},
		{
			"sampler":0,
			"source":12
		},
		{
			"sampler":0,
			"source":38
		},
		{
			"sampler":0,
			"source":14
		},
		{
			"sampler":0,
			"source":6
		},
		{
			"sampler":0,
			"source":39
		},
		{
			"sampler":0,
			"source":8
		},
		{
			"sampler":0,
			"source":9
		},
		{
			"sampler":0,
			"source":40
		},
		{
			"sampler":0,
			"source":11
		},
		{
			"sampler":0,
			"source":41
		},
		{
			"sampler":0,
			"source":42
		},
		{
			"sampler":0,
			"source":43
		},
		{
			"sampler":0,
			"source":44
		},
		{
			"sampler":0,
			"source":45
		},
		{
			"sampler":0,
			"source":46
		},
		{
			"sampler":0,
			"source":47
		},
		{
			"sampler":0,
			"source":48
		},
		{
			"sampler":0,
			"source":49
		},
		{
			"sampler":0,
			"source":50
		},
		{
			"sampler":0,
			"source":51
		},
		{
			"sampler":0,
			"source":52
		},
		{
			"sampler":0,
			"source":53
		},
		{
			"sampler":0,
			"source":54
		},
		{
			"sampler":0,
			"source":55
		},
		{
			"sampler":0,
			"source":56
		},
		{
			"sampler":0,
			"source":57
		},
		{
			"sampler":0,
			"source":58
		},
		{
			"sampler":0,
			"source":59
		}
	],
	"images":[
		{
			"mimeType":"image/jpeg",
			"name":"Wall_3.056_5_normal",
			"uri":"Wall_3.056_5_normal.jpg"
		},
		{
			"mimeType":"image/jpeg",
			"name":"Wall_3.056_5_baseColor",
			"uri":"Wall_3.056_5_baseColor.jpg"
		},
		{
			"mimeType":"image/png",
			"name":"Wall_3.056_5_metallicRoughness",
			"uri":"Wall_3.056_5_metallicRoughness.png"
		},
		{
			"mimeType":"image/jpeg",
			"name":"Wall_3.056_normal",
			"uri":"Wall_3.056_normal.jpg"
		},
		{
			"mimeType":"image/jpeg",
			"name":"Wall_3.056_baseColor",
			"uri":"Wall_3.056_baseColor.jpg"
		},
		{
			"mimeType":"image/png",
			"name":"Wall_3.056_metallicRoughness",
			"uri":"Wall_3.056_metallicRoughness.png"
		},
		{
			"mimeType":"image/jpeg",
			"name":"Wall_3.056_0_normal",
			"uri":"Wall_3.056_0_normal.jpg"
		},
		{
			"mimeType":"image/png",
			"name":"Wall_3.056_0_metallicRoughness",
			"uri":"Wall_3.056_0_metallicRoughness.png"
		},
		{
			"mimeType":"image/jpeg",
			"name":"Wall_3.056_0_baseColor",
			"uri":"Wall_3.056_0_baseColor.jpg"
		},
		{
			"mimeType":"image/jpeg",
			"name":"Wall_3.056_1_normal",
			"uri":"Wall_3.056_1_normal.jpg"
		},
		{
			"mimeType":"image/png",
			"name":"Wall_3.056_1_metallicRoughness",
			"uri":"Wall_3.056_1_metallicRoughness.png"
		},
		{
			"mimeType":"image/jpeg",
			"name":"Wall_3.056_1_baseColor",
			"uri":"Wall_3.056_1_baseColor.jpg"
		},
		{
			"mimeType":"image/jpeg",
			"name":"Wall_3.056_2_normal",
			"uri":"Wall_3.056_2_normal.jpg"
		},
		{
			"mimeType":"image/png",
			"name":"Wall_3.056_2_metallicRoughness",
			"uri":"Wall_3.056_2_metallicRoughness.png"
		},
		{
			"mimeType":"image/jpeg",
			"name":"Wall_3.056_2_baseColor",
			"uri":"Wall_3.056_2_baseColor.jpg"
		},
		{
			"mimeType":"image/jpeg",
			"name":"streetLightslightColors.048_emissive",
			"uri":"streetLightslightColors.048_emissive.jpg"
		},
		{
			"mimeType":"image/jpeg",
			"name":"streetLightslightColors.048_normal",
			"uri":"streetLightslightColors.048_normal.jpg"
		},
		{
			"mimeType":"image/png",
			"name":"streetLightslightColors.048_metallicRoughness",
			"uri":"streetLightslightColors.048_metallicRoughness.png"
		},
		{
			"mimeType":"image/jpeg",
			"name":"streetLightslightColors.048_baseColor",
			"uri":"streetLightslightColors.048_baseColor.jpg"
		},
		{
			"mimeType":"image/jpeg",
			"name":"Wall_3.056_3_normal",
			"uri":"Wall_3.056_3_normal.jpg"
		},
		{
			"mimeType":"image/png",
			"name":"Wall_3.056_3_metallicRoughness",
			"uri":"Wall_3.056_3_metallicRoughness.png"
		},
		{
			"mimeType":"image/jpeg",
			"name":"Wall_3.056_3_baseColor",
			"uri":"Wall_3.056_3_baseColor.jpg"
		},
		{
			"mimeType":"image/jpeg",
			"name":"Wall_3.056_4_normal",
			"uri":"Wall_3.056_4_normal.jpg"
		},
		{
			"mimeType":"image/jpeg",
			"name":"Wall_3.056_4_baseColor",
			"uri":"Wall_3.056_4_baseColor.jpg"
		},
		{
			"mimeType":"image/png",
			"name":"Wall_3.056_4_metallicRoughness",
			"uri":"Wall_3.056_4_metallicRoughness.png"
		},
		{
			"mimeType":"image/jpeg",
			"name":"Wall_3.056_6_normal",
			"uri":"Wall_3.056_6_normal.jpg"
		},
		{
			"mimeType":"image/jpeg",
			"name":"Wall_3.056_6_baseColor",
			"uri":"Wall_3.056_6_baseColor.jpg"
		},
		{
			"mimeType":"image/jpeg",
			"name":"Wall_3.056_7_normal",
			"uri":"Wall_3.056_7_normal.jpg"
		},
		{
			"mimeType":"image/png",
			"name":"Wall_3.056_7_baseColor",
			"uri":"Wall_3.056_7_baseColor.png"
		},
		{
			"mimeType":"image/jpeg",
			"name":"streetLightslightColors.048_0_emissive",
			"uri":"streetLightslightColors.048_0_emissive.jpg"
		},
		{
			"mimeType":"image/jpeg",
			"name":"streetLightslightColors.048_0_normal",
			"uri":"streetLightslightColors.048_0_normal.jpg"
		},
		{
			"mimeType":"image/jpeg",
			"name":"streetLightslightColors.048_0_baseColor",
			"uri":"streetLightslightColors.048_0_baseColor.jpg"
		},
		{
			"mimeType":"image/png",
			"name":"streetLightslightColors.048_0_metallicRoughness",
			"uri":"streetLightslightColors.048_0_metallicRoughness.png"
		},
		{
			"mimeType":"image/jpeg",
			"name":"Wall_3.056_8_normal",
			"uri":"Wall_3.056_8_normal.jpg"
		},
		{
			"mimeType":"image/jpeg",
			"name":"Wall_3.056_8_baseColor",
			"uri":"Wall_3.056_8_baseColor.jpg"
		},
		{
			"mimeType":"image/jpeg",
			"name":"Wall_3.056_9_normal",
			"uri":"Wall_3.056_9_normal.jpg"
		},
		{
			"mimeType":"image/jpeg",
			"name":"Wall_3.056_9_baseColor",
			"uri":"Wall_3.056_9_baseColor.jpg"
		},
		{
			"mimeType":"image/png",
			"name":"Wall_3.056_10_metallicRoughness",
			"uri":"Wall_3.056_10_metallicRoughness.png"
		},
		{
			"mimeType":"image/png",
			"name":"Wall_3.056_11_metallicRoughness",
			"uri":"Wall_3.056_11_metallicRoughness.png"
		},
		{
			"mimeType":"image/png",
			"name":"Wall_3.056_12_metallicRoughness",
			"uri":"Wall_3.056_12_metallicRoughness.png"
		},
		{
			"mimeType":"image/png",
			"name":"Wall_3.056_13_metallicRoughness",
			"uri":"Wall_3.056_13_metallicRoughness.png"
		},
		{
			"mimeType":"image/jpeg",
			"name":"streetLightslightColors.048_1_emissive",
			"uri":"streetLightslightColors.048_1_emissive.jpg"
		},
		{
			"mimeType":"image/jpeg",
			"name":"streetLightslightColors.048_1_baseColor",
			"uri":"streetLightslightColors.048_1_baseColor.jpg"
		},
		{
			"mimeType":"image/jpeg",
			"name":"Wall_3.056_14_normal",
			"uri":"Wall_3.056_14_normal.jpg"
		},
		{
			"mimeType":"image/png",
			"name":"Wall_3.056_14_metallicRoughness",
			"uri":"Wall_3.056_14_metallicRoughness.png"
		},
		{
			"mimeType":"image/png",
			"name":"Wall_3.056_14_baseColor",
			"uri":"Wall_3.056_14_baseColor.png"
		},
		{
			"mimeType":"image/jpeg",
			"name":"Wall_3.056_15_normal",
			"uri":"Wall_3.056_15_normal.jpg"
		},
		{
			"mimeType":"image/png",
			"name":"Wall_3.056_15_metallicRoughness",
			"uri":"Wall_3.056_15_metallicRoughness.png"
		},
		{
			"mimeType":"image/jpeg",
			"name":"Wall_3.056_15_baseColor",
			"uri":"Wall_3.056_15_baseColor.jpg"
		},
		{
			"mimeType":"image/jpeg",
			"name":"Wall_3.056_16_normal",
			"uri":"Wall_3.056_16_normal.jpg"
		},
		{
			"mimeType":"image/jpeg",
			"name":"Wall_3.056_16_baseColor",
			"uri":"Wall_3.056_16_baseColor.jpg"
		},
		{
			"mimeType":"image/png",
			"name":"Wall_3.056_16_metallicRoughness",
			"uri":"Wall_3.056_16_metallicRoughness.png"
		},
		{
			"mimeType":"image/jpeg",
			"name":"Wall_3.056_17_normal",
			"uri":"Wall_3.056_17_normal.jpg"
		},
		{
			"mimeType":"image/jpeg",
			"name":"Wall_3.056_17_baseColor",
			"uri":"Wall_3.056_17_baseColor.jpg"
		},
		{
			"mimeType":"image/jpeg",
			"name":"Wall_3.056_18_normal",
			"uri":"Wall_3.056_18_normal.jpg"
		},
		{
			"mimeType":"image/jpeg",
			"name":"Wall_3.056_18_baseColor",
			"uri":"Wall_3.056_18_baseColor.jpg"
		},
		{
			"mimeType":"image/jpeg",
			"name":"Wall_3.056_19_normal",
			"uri":"Wall_3.056_19_normal.jpg"
		},
		{
			"mimeType":"image/jpeg",
			"name":"Wall_3.056_19_baseColor",
			"uri":"Wall_3.056_19_baseColor.jpg"
		},
		{
			"mimeType":"image/jpeg",
			"name":"Wall_3.056_20_normal",
			"uri":"Wall_3.056_20_normal.jpg"
		},
		{
			"mimeType":"image/jpeg",
			"name":"Wall_3.056_20_baseColor",
			"uri":"Wall_3.056_20_baseColor.jpg"
		}
	],
	"accessors":[
		{
			"bufferView":0,
			"componentType":5126,
			"count":288287,
			"max":[
				9.969365119934082,
				7.107245445251465,
				17.693113327026367
			],
			"min":[
				-3.9761385917663574,
				-31.883865356445312,
				-11.969422340393066
			],
			"type":"VEC3"
		},
		{
			"bufferView":1,
			"componentType":5126,
			"count":288287,
			"type":"VEC3"
		},
		{
			"bufferView":2,
			"componentType":5126,
			"count":288287,
			"type":"VEC2"
		},
		{
			"bufferView":3,
			"componentType":5126,
			"count":288287,
			"type":"VEC2"
		},
		{
			"bufferView":4,
			"componentType":5126,
			"count":288287,
			"type":"VEC2"
		},
		{
			"bufferView":5,
			"componentType":5126,
			"count":288287,
			"type":"VEC2"
		},
		{
			"bufferView":6,
			"componentType":5126,
			"count":288287,
			"type":"VEC2"
		},
		{
			"bufferView":7,
			"componentType":5126,
			"count":288287,
			"type":"VEC2"
		},
		{
			"bufferView":8,
			"componentType":5126,
			"count":288287,
			"type":"VEC2"
		},
		{
			"bufferView":9,
			"componentType":5125,
			"count":494562,
			"type":"SCALAR"
		},
		{
			"bufferView":10,
			"componentType":5126,
			"count":12025,
			"max":[
				9.964079856872559,
				-7.95510721206665,
				7.723329067230225
			],
			"min":[
				8.561067581176758,
				-12.422565460205078,
				5.7884745597839355
			],
			"type":"VEC3"
		},
		{
			"bufferView":11,
			"componentType":5126,
			"count":12025,
			"type":"VEC3"
		},
		{
			"bufferView":12,
			"componentType":5126,
			"count":12025,
			"type":"VEC2"
		},
		{
			"bufferView":13,
			"componentType":5126,
			"count":12025,
			"type":"VEC2"
		},
		{
			"bufferView":14,
			"componentType":5126,
			"count":12025,
			"type":"VEC2"
		},
		{
			"bufferView":15,
			"componentType":5126,
			"count":12025,
			"type":"VEC2"
		},
		{
			"bufferView":16,
			"componentType":5126,
			"count":12025,
			"type":"VEC2"
		},
		{
			"bufferView":17,
			"componentType":5126,
			"count":12025,
			"type":"VEC2"
		},
		{
			"bufferView":18,
			"componentType":5126,
			"count":12025,
			"type":"VEC2"
		},
		{
			"bufferView":19,
			"componentType":5123,
			"count":55341,
			"type":"SCALAR"
		},
		{
			"bufferView":20,
			"componentType":5126,
			"count":1009,
			"max":[
				9.969352722167969,
				-3.8651132583618164,
				20.350181579589844
			],
			"min":[
				8.955079078674316,
				-5.263859272003174,
				19.048904418945312
			],
			"type":"VEC3"
		},
		{
			"bufferView":21,
			"componentType":5126,
			"count":1009,
			"type":"VEC3"
		},
		{
			"bufferView":22,
			"componentType":5126,
			"count":1009,
			"type":"VEC2"
		},
		{
			"bufferView":23,
			"componentType":5126,
			"count":1009,
			"type":"VEC2"
		},
		{
			"bufferView":24,
			"componentType":5126,
			"count":1009,
			"type":"VEC2"
		},
		{
			"bufferView":25,
			"componentType":5126,
			"count":1009,
			"type":"VEC2"
		},
		{
			"bufferView":26,
			"componentType":5126,
			"count":1009,
			"type":"VEC2"
		},
		{
			"bufferView":27,
			"componentType":5126,
			"count":1009,
			"type":"VEC2"
		},
		{
			"bufferView":28,
			"componentType":5126,
			"count":1009,
			"type":"VEC2"
		},
		{
			"bufferView":29,
			"componentType":5123,
			"count":2940,
			"type":"SCALAR"
		},
		{
			"bufferView":30,
			"componentType":5126,
			"count":1033,
			"max":[
				9.969294548034668,
				-4.755372524261475,
				21.863121032714844
			],
			"min":[
				8.926493644714355,
				-5.524879455566406,
				20.09320068359375
			],
			"type":"VEC3"
		},
		{
			"bufferView":31,
			"componentType":5126,
			"count":1033,
			"type":"VEC3"
		},
		{
			"bufferView":32,
			"componentType":5126,
			"count":1033,
			"type":"VEC2"
		},
		{
			"bufferView":33,
			"componentType":5126,
			"count":1033,
			"type":"VEC2"
		},
		{
			"bufferView":34,
			"componentType":5126,
			"count":1033,
			"type":"VEC2"
		},
		{
			"bufferView":35,
			"componentType":5126,
			"count":1033,
			"type":"VEC2"
		},
		{
			"bufferView":36,
			"componentType":5126,
			"count":1033,
			"type":"VEC2"
		},
		{
			"bufferView":37,
			"componentType":5126,
			"count":1033,
			"type":"VEC2"
		},
		{
			"bufferView":38,
			"componentType":5126,
			"count":1033,
			"type":"VEC2"
		},
		{
			"bufferView":39,
			"componentType":5123,
			"count":2934,
			"type":"SCALAR"
		},
		{
			"bufferView":40,
			"componentType":5126,
			"count":2528,
			"max":[
				9.971426963806152,
				-7.532701015472412,
				12.937832832336426
			],
			"min":[
				8.792482376098633,
				-9.423306465148926,
				-3.5442121028900146
			],
			"type":"VEC3"
		},
		{
			"bufferView":41,
			"componentType":5126,
			"count":2528,
			"type":"VEC3"
		},
		{
			"bufferView":42,
			"componentType":5126,
			"count":2528,
			"type":"VEC2"
		},
		{
			"bufferView":43,
			"componentType":5126,
			"count":2528,
			"type":"VEC2"
		},
		{
			"bufferView":44,
			"componentType":5126,
			"count":2528,
			"type":"VEC2"
		},
		{
			"bufferView":45,
			"componentType":5126,
			"count":2528,
			"type":"VEC2"
		},
		{
			"bufferView":46,
			"componentType":5126,
			"count":2528,
			"type":"VEC2"
		},
		{
			"bufferView":47,
			"componentType":5126,
			"count":2528,
			"type":"VEC2"
		},
		{
			"bufferView":48,
			"componentType":5126,
			"count":2528,
			"type":"VEC2"
		},
		{
			"bufferView":49,
			"componentType":5123,
			"count":9978,
			"type":"SCALAR"
		},
		{
			"bufferView":50,
			"componentType":5126,
			"count":318,
			"max":[
				9.07182788848877,
				-8.302596092224121,
				12.438800811767578
			],
			"min":[
				8.84007453918457,
				-8.38810920715332,
				12.215667724609375
			],
			"type":"VEC3"
		},
		{
			"bufferView":51,
			"componentType":5126,
			"count":318,
			"type":"VEC3"
		},
		{
			"bufferView":52,
			"componentType":5126,
			"count":318,
			"type":"VEC2"
		},
		{
			"bufferView":53,
			"componentType":5126,
			"count":318,
			"type":"VEC2"
		},
		{
			"bufferView":54,
			"componentType":5126,
			"count":318,
			"type":"VEC2"
		},
		{
			"bufferView":55,
			"componentType":5126,
			"count":318,
			"type":"VEC2"
		},
		{
			"bufferView":56,
			"componentType":5126,
			"count":318,
			"type":"VEC2"
		},
		{
			"bufferView":57,
			"componentType":5126,
			"count":318,
			"type":"VEC2"
		},
		{
			"bufferView":58,
			"componentType":5126,
			"count":318,
			"type":"VEC2"
		},
		{
			"bufferView":59,
			"componentType":5123,
			"count":1248,
			"type":"SCALAR"
		},
		{
			"bufferView":60,
			"componentType":5126,
			"count":1502,
			"max":[
				9.977316856384277,
				-1.409794807434082,
				14.889728546142578
			],
			"min":[
				8.53883171081543,
				-13.267372131347656,
				7.919516086578369
			],
			"type":"VEC3"
		},
		{
			"bufferView":61,
			"componentType":5126,
			"count":1502,
			"type":"VEC3"
		},
		{
			"bufferView":62,
			"componentType":5126,
			"count":1502,
			"type":"VEC2"
		},
		{
			"bufferView":63,
			"componentType":5126,
			"count":1502,
			"type":"VEC2"
		},
		{
			"bufferView":64,
			"componentType":5126,
			"count":1502,
			"type":"VEC2"
		},
		{
			"bufferView":65,
			"componentType":5126,
			"count":1502,
			"type":"VEC2"
		},
		{
			"bufferView":66,
			"componentType":5126,
			"count":1502,
			"type":"VEC2"
		},
		{
			"bufferView":67,
			"componentType":5126,
			"count":1502,
			"type":"VEC2"
		},
		{
			"bufferView":68,
			"componentType":5126,
			"count":1502,
			"type":"VEC2"
		},
		{
			"bufferView":69,
			"componentType":5123,
			"count":4152,
			"type":"SCALAR"
		},
		{
			"bufferView":70,
			"componentType":5126,
			"count":13914,
			"max":[
				10.009366035461426,
				6.111654758453369,
				30.000070571899414
			],
			"min":[
				9.90934944152832,
				-31.88831329345703,
				-11.999896049499512
			],
			"type":"VEC3"
		},
		{
			"bufferView":71,
			"componentType":5126,
			"count":13914,
			"type":"VEC3"
		},
		{
			"bufferView":72,
			"componentType":5126,
			"count":13914,
			"type":"VEC2"
		},
		{
			"bufferView":73,
			"componentType":5126,
			"count":13914,
			"type":"VEC2"
		},
		{
			"bufferView":74,
			"componentType":5126,
			"count":13914,
			"type":"VEC2"
		},
		{
			"bufferView":75,
			"componentType":5126,
			"count":13914,
			"type":"VEC2"
		},
		{
			"bufferView":76,
			"componentType":5126,
			"count":13914,
			"type":"VEC2"
		},
		{
			"bufferView":77,
			"componentType":5126,
			"count":13914,
			"type":"VEC2"
		},
		{
			"bufferView":78,
			"componentType":5126,
			"count":13914,
			"type":"VEC2"
		},
		{
			"bufferView":79,
			"componentType":5123,
			"count":26976,
			"type":"SCALAR"
		},
		{
			"bufferView":80,
			"componentType":5126,
			"count":1732,
			"max":[
				9.987085342407227,
				4.111509323120117,
				21.999942779541016
			],
			"min":[
				-4.0404839515686035,
				-30.898311614990234,
				-12.001836776733398
			],
			"type":"VEC3"
		},
		{
			"bufferView":81,
			"componentType":5126,
			"count":1732,
			"type":"VEC3"
		},
		{
			"bufferView":82,
			"componentType":5126,
			"count":1732,
			"type":"VEC2"
		},
		{
			"bufferView":83,
			"componentType":5126,
			"count":1732,
			"type":"VEC2"
		},
		{
			"bufferView":84,
			"componentType":5126,
			"count":1732,
			"type":"VEC2"
		},
		{
			"bufferView":85,
			"componentType":5126,
			"count":1732,
			"type":"VEC2"
		},
		{
			"bufferView":86,
			"componentType":5126,
			"count":1732,
			"type":"VEC2"
		},
		{
			"bufferView":87,
			"componentType":5126,
			"count":1732,
			"type":"VEC2"
		},
		{
			"bufferView":88,
			"componentType":5126,
			"count":1732,
			"type":"VEC2"
		},
		{
			"bufferView":89,
			"componentType":5123,
			"count":2592,
			"type":"SCALAR"
		},
		{
			"bufferView":90,
			"componentType":5126,
			"count":112693,
			"max":[
				9.969365119934082,
				7.203115463256836,
				20.502431869506836
			],
			"min":[
				-3.3216652870178223,
				-31.979734420776367,
				-11.961250305175781
			],
			"type":"VEC3"
		},
		{
			"bufferView":91,
			"componentType":5126,
			"count":112693,
			"type":"VEC3"
		},
		{
			"bufferView":92,
			"componentType":5126,
			"count":112693,
			"type":"VEC2"
		},
		{
			"bufferView":93,
			"componentType":5126,
			"count":112693,
			"type":"VEC2"
		},
		{
			"bufferView":94,
			"componentType":5126,
			"count":112693,
			"type":"VEC2"
		},
		{
			"bufferView":95,
			"componentType":5126,
			"count":112693,
			"type":"VEC2"
		},
		{
			"bufferView":96,
			"componentType":5126,
			"count":112693,
			"type":"VEC2"
		},
		{
			"bufferView":97,
			"componentType":5126,
			"count":112693,
			"type":"VEC2"
		},
		{
			"bufferView":98,
			"componentType":5126,
			"count":112693,
			"type":"VEC2"
		},
		{
			"bufferView":99,
			"componentType":5125,
			"count":221994,
			"type":"SCALAR"
		},
		{
			"bufferView":100,
			"componentType":5126,
			"count":12658,
			"max":[
				9.91565990447998,
				4.737031936645508,
				17.625452041625977
			],
			"min":[
				8.02988052368164,
				-31.513654708862305,
				-11.965620040893555
			],
			"type":"VEC3"
		},
		{
			"bufferView":101,
			"componentType":5126,
			"count":12658,
			"type":"VEC3"
		},
		{
			"bufferView":102,
			"componentType":5126,
			"count":12658,
			"type":"VEC2"
		},
		{
			"bufferView":103,
			"componentType":5126,
			"count":12658,
			"type":"VEC2"
		},
		{
			"bufferView":104,
			"componentType":5126,
			"count":12658,
			"type":"VEC2"
		},
		{
			"bufferView":105,
			"componentType":5126,
			"count":12658,
			"type":"VEC2"
		},
		{
			"bufferView":106,
			"componentType":5126,
			"count":12658,
			"type":"VEC2"
		},
		{
			"bufferView":107,
			"componentType":5126,
			"count":12658,
			"type":"VEC2"
		},
		{
			"bufferView":108,
			"componentType":5126,
			"count":12658,
			"type":"VEC2"
		},
		{
			"bufferView":109,
			"componentType":5123,
			"count":35616,
			"type":"SCALAR"
		},
		{
			"bufferView":110,
			"componentType":5126,
			"count":32849,
			"max":[
				8.722261428833008,
				6.590004920959473,
				17.331790924072266
			],
			"min":[
				-3.5884690284729004,
				-31.366622924804688,
				-11.782279968261719
			],
			"type":"VEC3"
		},
		{
			"bufferView":111,
			"componentType":5126,
			"count":32849,
			"type":"VEC3"
		},
		{
			"bufferView":112,
			"componentType":5126,
			"count":32849,
			"type":"VEC2"
		},
		{
			"bufferView":113,
			"componentType":5126,
			"count":32849,
			"type":"VEC2"
		},
		{
			"bufferView":114,
			"componentType":5126,
			"count":32849,
			"type":"VEC2"
		},
		{
			"bufferView":115,
			"componentType":5126,
			"count":32849,
			"type":"VEC2"
		},
		{
			"bufferView":116,
			"componentType":5126,
			"count":32849,
			"type":"VEC2"
		},
		{
			"bufferView":117,
			"componentType":5126,
			"count":32849,
			"type":"VEC2"
		},
		{
			"bufferView":118,
			"componentType":5126,
			"count":32849,
			"type":"VEC2"
		},
		{
			"bufferView":119,
			"componentType":5123,
			"count":56640,
			"type":"SCALAR"
		},
		{
			"bufferView":120,
			"componentType":5126,
			"count":4616,
			"max":[
				7.969514846801758,
				6.111688137054443,
				17.000102996826172
			],
			"min":[
				-4.030483722686768,
				-30.898311614990234,
				-12.001838684082031
			],
			"type":"VEC3"
		},
		{
			"bufferView":121,
			"componentType":5126,
			"count":4616,
			"type":"VEC3"
		},
		{
			"bufferView":122,
			"componentType":5126,
			"count":4616,
			"type":"VEC2"
		},
		{
			"bufferView":123,
			"componentType":5126,
			"count":4616,
			"type":"VEC2"
		},
		{
			"bufferView":124,
			"componentType":5126,
			"count":4616,
			"type":"VEC2"
		},
		{
			"bufferView":125,
			"componentType":5126,
			"count":4616,
			"type":"VEC2"
		},
		{
			"bufferView":126,
			"componentType":5126,
			"count":4616,
			"type":"VEC2"
		},
		{
			"bufferView":127,
			"componentType":5126,
			"count":4616,
			"type":"VEC2"
		},
		{
			"bufferView":128,
			"componentType":5126,
			"count":4616,
			"type":"VEC2"
		},
		{
			"bufferView":129,
			"componentType":5123,
			"count":6912,
			"type":"SCALAR"
		},
		{
			"bufferView":130,
			"componentType":5126,
			"count":1154,
			"max":[
				9.972550392150879,
				-10.200581550598145,
				21.630165100097656
			],
			"min":[
				8.538832664489746,
				-25.026607513427734,
				10.007956504821777
			],
			"type":"VEC3"
		},
		{
			"bufferView":131,
			"componentType":5126,
			"count":1154,
			"type":"VEC3"
		},
		{
			"bufferView":132,
			"componentType":5126,
			"count":1154,
			"type":"VEC2"
		},
		{
			"bufferView":133,
			"componentType":5126,
			"count":1154,
			"type":"VEC2"
		},
		{
			"bufferView":134,
			"componentType":5126,
			"count":1154,
			"type":"VEC2"
		},
		{
			"bufferView":135,
			"componentType":5126,
			"count":1154,
			"type":"VEC2"
		},
		{
			"bufferView":136,
			"componentType":5126,
			"count":1154,
			"type":"VEC2"
		},
		{
			"bufferView":137,
			"componentType":5126,
			"count":1154,
			"type":"VEC2"
		},
		{
			"bufferView":138,
			"componentType":5126,
			"count":1154,
			"type":"VEC2"
		},
		{
			"bufferView":139,
			"componentType":5123,
			"count":3348,
			"type":"SCALAR"
		},
		{
			"bufferView":140,
			"componentType":5126,
			"count":7028,
			"max":[
				9.971427917480469,
				-5.939683437347412,
				21.82210350036621
			],
			"min":[
				8.792481422424316,
				-21.63661766052246,
				3.3598015308380127
			],
			"type":"VEC3"
		},
		{
			"bufferView":141,
			"componentType":5126,
			"count":7028,
			"type":"VEC3"
		},
		{
			"bufferView":142,
			"componentType":5126,
			"count":7028,
			"type":"VEC2"
		},
		{
			"bufferView":143,
			"componentType":5126,
			"count":7028,
			"type":"VEC2"
		},
		{
			"bufferView":144,
			"componentType":5126,
			"count":7028,
			"type":"VEC2"
		},
		{
			"bufferView":145,
			"componentType":5126,
			"count":7028,
			"type":"VEC2"
		},
		{
			"bufferView":146,
			"componentType":5126,
			"count":7028,
			"type":"VEC2"
		},
		{
			"bufferView":147,
			"componentType":5126,
			"count":7028,
			"type":"VEC2"
		},
		{
			"bufferView":148,
			"componentType":5126,
			"count":7028,
			"type":"VEC2"
		},
		{
			"bufferView":149,
			"componentType":5123,
			"count":30978,
			"type":"SCALAR"
		},
		{
			"bufferView":150,
			"componentType":5126,
			"count":4049,
			"max":[
				9.96935749053955,
				3.6969704627990723,
				19.54401969909668
			],
			"min":[
				8.955079078674316,
				-8.276931762695312,
				-6.690609455108643
			],
			"type":"VEC3"
		},
		{
			"bufferView":151,
			"componentType":5126,
			"count":4049,
			"type":"VEC3"
		},
		{
			"bufferView":152,
			"componentType":5126,
			"count":4049,
			"type":"VEC2"
		},
		{
			"bufferView":153,
			"componentType":5126,
			"count":4049,
			"type":"VEC2"
		},
		{
			"bufferView":154,
			"componentType":5126,
			"count":4049,
			"type":"VEC2"
		},
		{
			"bufferView":155,
			"componentType":5126,
			"count":4049,
			"type":"VEC2"
		},
		{
			"bufferView":156,
			"componentType":5126,
			"count":4049,
			"type":"VEC2"
		},
		{
			"bufferView":157,
			"componentType":5126,
			"count":4049,
			"type":"VEC2"
		},
		{
			"bufferView":158,
			"componentType":5126,
			"count":4049,
			"type":"VEC2"
		},
		{
			"bufferView":159,
			"componentType":5123,
			"count":11760,
			"type":"SCALAR"
		},
		{
			"bufferView":160,
			"componentType":5126,
			"count":4121,
			"max":[
				9.969297409057617,
				2.1524088382720947,
				19.581552505493164
			],
			"min":[
				8.926493644714355,
				-9.771408081054688,
				-6.7087602615356445
			],
			"type":"VEC3"
		},
		{
			"bufferView":161,
			"componentType":5126,
			"count":4121,
			"type":"VEC3"
		},
		{
			"bufferView":162,
			"componentType":5126,
			"count":4121,
			"type":"VEC2"
		},
		{
			"bufferView":163,
			"componentType":5126,
			"count":4121,
			"type":"VEC2"
		},
		{
			"bufferView":164,
			"componentType":5126,
			"count":4121,
			"type":"VEC2"
		},
		{
			"bufferView":165,
			"componentType":5126,
			"count":4121,
			"type":"VEC2"
		},
		{
			"bufferView":166,
			"componentType":5126,
			"count":4121,
			"type":"VEC2"
		},
		{
			"bufferView":167,
			"componentType":5126,
			"count":4121,
			"type":"VEC2"
		},
		{
			"bufferView":168,
			"componentType":5126,
			"count":4121,
			"type":"VEC2"
		},
		{
			"bufferView":169,
			"componentType":5123,
			"count":11736,
			"type":"SCALAR"
		},
		{
			"bufferView":170,
			"componentType":5126,
			"count":48460,
			"max":[
				9.995038032531738,
				4.591551303863525,
				25.809215545654297
			],
			"min":[
				6.427529811859131,
				-25.8022518157959,
				-8.072937965393066
			],
			"type":"VEC3"
		},
		{
			"bufferView":171,
			"componentType":5126,
			"count":48460,
			"type":"VEC3"
		},
		{
			"bufferView":172,
			"componentType":5126,
			"count":48460,
			"type":"VEC2"
		},
		{
			"bufferView":173,
			"componentType":5126,
			"count":48460,
			"type":"VEC2"
		},
		{
			"bufferView":174,
			"componentType":5126,
			"count":48460,
			"type":"VEC2"
		},
		{
			"bufferView":175,
			"componentType":5126,
			"count":48460,
			"type":"VEC2"
		},
		{
			"bufferView":176,
			"componentType":5126,
			"count":48460,
			"type":"VEC2"
		},
		{
			"bufferView":177,
			"componentType":5126,
			"count":48460,
			"type":"VEC2"
		},
		{
			"bufferView":178,
			"componentType":5126,
			"count":48460,
			"type":"VEC2"
		},
		{
			"bufferView":179,
			"componentType":5123,
			"count":150084,
			"type":"SCALAR"
		},
		{
			"bufferView":180,
			"componentType":5126,
			"count":24252,
			"max":[
				9.813634872436523,
				1.7938106060028076,
				22.299205780029297
			],
			"min":[
				4.4283952713012695,
				-26.483591079711914,
				-9.86922550201416
			],
			"type":"VEC3"
		},
		{
			"bufferView":181,
			"componentType":5126,
			"count":24252,
			"type":"VEC3"
		},
		{
			"bufferView":182,
			"componentType":5126,
			"count":24252,
			"type":"VEC2"
		},
		{
			"bufferView":183,
			"componentType":5126,
			"count":24252,
			"type":"VEC2"
		},
		{
			"bufferView":184,
			"componentType":5126,
			"count":24252,
			"type":"VEC2"
		},
		{
			"bufferView":185,
			"componentType":5126,
			"count":24252,
			"type":"VEC2"
		},
		{
			"bufferView":186,
			"componentType":5126,
			"count":24252,
			"type":"VEC2"
		},
		{
			"bufferView":187,
			"componentType":5126,
			"count":24252,
			"type":"VEC2"
		},
		{
			"bufferView":188,
			"componentType":5126,
			"count":24252,
			"type":"VEC2"
		},
		{
			"bufferView":189,
			"componentType":5123,
			"count":72756,
			"type":"SCALAR"
		},
		{
			"bufferView":190,
			"componentType":5126,
			"count":8381,
			"max":[
				9.970061302185059,
				1.1114346981048584,
				21.372814178466797
			],
			"min":[
				5.110160827636719,
				-25.986713409423828,
				-9.265005111694336
			],
			"type":"VEC3"
		},
		{
			"bufferView":191,
			"componentType":5126,
			"count":8381,
			"type":"VEC3"
		},
		{
			"bufferView":192,
			"componentType":5126,
			"count":8381,
			"type":"VEC2"
		},
		{
			"bufferView":193,
			"componentType":5126,
			"count":8381,
			"type":"VEC2"
		},
		{
			"bufferView":194,
			"componentType":5126,
			"count":8381,
			"type":"VEC2"
		},
		{
			"bufferView":195,
			"componentType":5126,
			"count":8381,
			"type":"VEC2"
		},
		{
			"bufferView":196,
			"componentType":5126,
			"count":8381,
			"type":"VEC2"
		},
		{
			"bufferView":197,
			"componentType":5126,
			"count":8381,
			"type":"VEC2"
		},
		{
			"bufferView":198,
			"componentType":5126,
			"count":8381,
			"type":"VEC2"
		},
		{
			"bufferView":199,
			"componentType":5123,
			"count":31122,
			"type":"SCALAR"
		},
		{
			"bufferView":200,
			"componentType":5126,
			"count":72,
			"max":[
				6.6810102462768555,
				-7.9793195724487305,
				17.240510940551758
			],
			"min":[
				6.439822673797607,
				-8.550745964050293,
				10.604330062866211
			],
			"type":"VEC3"
		},
		{
			"bufferView":201,
			"componentType":5126,
			"count":72,
			"type":"VEC3"
		},
		{
			"bufferView":202,
			"componentType":5126,
			"count":72,
			"type":"VEC2"
		},
		{
			"bufferView":203,
			"componentType":5126,
			"count":72,
			"type":"VEC2"
		},
		{
			"bufferView":204,
			"componentType":5126,
			"count":72,
			"type":"VEC2"
		},
		{
			"bufferView":205,
			"componentType":5126,
			"count":72,
			"type":"VEC2"
		},
		{
			"bufferView":206,
			"componentType":5126,
			"count":72,
			"type":"VEC2"
		},
		{
			"bufferView":207,
			"componentType":5126,
			"count":72,
			"type":"VEC2"
		},
		{
			"bufferView":208,
			"componentType":5126,
			"count":72,
			"type":"VEC2"
		},
		{
			"bufferView":209,
			"componentType":5123,
			"count":216,
			"type":"SCALAR"
		},
		{
			"bufferView":210,
			"componentType":5126,
			"count":2886,
			"max":[
				7.969513893127441,
				6.121691703796387,
				12.010106086730957
			],
			"min":[
				-0.033203110098838806,
				-19.898311614990234,
				-0.9005966186523438
			],
			"type":"VEC3"
		},
		{
			"bufferView":211,
			"componentType":5126,
			"count":2886,
			"type":"VEC3"
		},
		{
			"bufferView":212,
			"componentType":5126,
			"count":2886,
			"type":"VEC2"
		},
		{
			"bufferView":213,
			"componentType":5126,
			"count":2886,
			"type":"VEC2"
		},
		{
			"bufferView":214,
			"componentType":5126,
			"count":2886,
			"type":"VEC2"
		},
		{
			"bufferView":215,
			"componentType":5126,
			"count":2886,
			"type":"VEC2"
		},
		{
			"bufferView":216,
			"componentType":5126,
			"count":2886,
			"type":"VEC2"
		},
		{
			"bufferView":217,
			"componentType":5126,
			"count":2886,
			"type":"VEC2"
		},
		{
			"bufferView":218,
			"componentType":5126,
			"count":2886,
			"type":"VEC2"
		},
		{
			"bufferView":219,
			"componentType":5123,
			"count":4320,
			"type":"SCALAR"
		},
		{
			"bufferView":220,
			"componentType":5126,
			"count":1632,
			"max":[
				9.969514846801758,
				6.121691703796387,
				12.010106086730957
			],
			"min":[
				-0.030482850968837738,
				-3.902578592300415,
				-2.009894609451294
			],
			"type":"VEC3"
		},
		{
			"bufferView":221,
			"componentType":5126,
			"count":1632,
			"type":"VEC3"
		},
		{
			"bufferView":222,
			"componentType":5126,
			"count":1632,
			"type":"VEC2"
		},
		{
			"bufferView":223,
			"componentType":5126,
			"count":1632,
			"type":"VEC2"
		},
		{
			"bufferView":224,
			"componentType":5126,
			"count":1632,
			"type":"VEC2"
		},
		{
			"bufferView":225,
			"componentType":5126,
			"count":1632,
			"type":"VEC2"
		},
		{
			"bufferView":226,
			"componentType":5126,
			"count":1632,
			"type":"VEC2"
		},
		{
			"bufferView":227,
			"componentType":5126,
			"count":1632,
			"type":"VEC2"
		},
		{
			"bufferView":228,
			"componentType":5126,
			"count":1632,
			"type":"VEC2"
		},
		{
			"bufferView":229,
			"componentType":5123,
			"count":2448,
			"type":"SCALAR"
		},
		{
			"bufferView":230,
			"componentType":5126,
			"count":1008,
			"max":[
				9.969515800476074,
				4.121687412261963,
				17.010107040405273
			],
			"min":[
				7.969515800476074,
				-19.8983097076416,
				-2.0098936557769775
			],
			"type":"VEC3"
		},
		{
			"bufferView":231,
			"componentType":5126,
			"count":1008,
			"type":"VEC3"
		},
		{
			"bufferView":232,
			"componentType":5126,
			"count":1008,
			"type":"VEC2"
		},
		{
			"bufferView":233,
			"componentType":5126,
			"count":1008,
			"type":"VEC2"
		},
		{
			"bufferView":234,
			"componentType":5126,
			"count":1008,
			"type":"VEC2"
		},
		{
			"bufferView":235,
			"componentType":5126,
			"count":1008,
			"type":"VEC2"
		},
		{
			"bufferView":236,
			"componentType":5126,
			"count":1008,
			"type":"VEC2"
		},
		{
			"bufferView":237,
			"componentType":5126,
			"count":1008,
			"type":"VEC2"
		},
		{
			"bufferView":238,
			"componentType":5126,
			"count":1008,
			"type":"VEC2"
		},
		{
			"bufferView":239,
			"componentType":5123,
			"count":1512,
			"type":"SCALAR"
		},
		{
			"bufferView":240,
			"componentType":5126,
			"count":150,
			"max":[
				7.969512939453125,
				-13.67831039428711,
				16.010107040405273
			],
			"min":[
				5.969515800476074,
				-17.69831085205078,
				13.990107536315918
			],
			"type":"VEC3"
		},
		{
			"bufferView":241,
			"componentType":5126,
			"count":150,
			"type":"VEC3"
		},
		{
			"bufferView":242,
			"componentType":5126,
			"count":150,
			"type":"VEC2"
		},
		{
			"bufferView":243,
			"componentType":5126,
			"count":150,
			"type":"VEC2"
		},
		{
			"bufferView":244,
			"componentType":5126,
			"count":150,
			"type":"VEC2"
		},
		{
			"bufferView":245,
			"componentType":5126,
			"count":150,
			"type":"VEC2"
		},
		{
			"bufferView":246,
			"componentType":5126,
			"count":150,
			"type":"VEC2"
		},
		{
			"bufferView":247,
			"componentType":5126,
			"count":150,
			"type":"VEC2"
		},
		{
			"bufferView":248,
			"componentType":5126,
			"count":150,
			"type":"VEC2"
		},
		{
			"bufferView":249,
			"componentType":5123,
			"count":216,
			"type":"SCALAR"
		}
	],
	"bufferViews":[
		{
			"buffer":0,
			"byteLength":3459444,
			"byteOffset":0,
			"target":34962
		},
		{
			"buffer":0,
			"byteLength":3459444,
			"byteOffset":3459444,
			"target":34962
		},
		{
			"buffer":0,
			"byteLength":2306296,
			"byteOffset":6918888,
			"target":34962
		},
		{
			"buffer":0,
			"byteLength":2306296,
			"byteOffset":9225184,
			"target":34962
		},
		{
			"buffer":0,
			"byteLength":2306296,
			"byteOffset":11531480,
			"target":34962
		},
		{
			"buffer":0,
			"byteLength":2306296,
			"byteOffset":13837776,
			"target":34962
		},
		{
			"buffer":0,
			"byteLength":2306296,
			"byteOffset":16144072,
			"target":34962
		},
		{
			"buffer":0,
			"byteLength":2306296,
			"byteOffset":18450368,
			"target":34962
		},
		{
			"buffer":0,
			"byteLength":2306296,
			"byteOffset":20756664,
			"target":34962
		},
		{
			"buffer":0,
			"byteLength":1978248,
			"byteOffset":23062960,
			"target":34963
		},
		{
			"buffer":0,
			"byteLength":144300,
			"byteOffset":25041208,
			"target":34962
		},
		{
			"buffer":0,
			"byteLength":144300,
			"byteOffset":25185508,
			"target":34962
		},
		{
			"buffer":0,
			"byteLength":96200,
			"byteOffset":25329808,
			"target":34962
		},
		{
			"buffer":0,
			"byteLength":96200,
			"byteOffset":25426008,
			"target":34962
		},
		{
			"buffer":0,
			"byteLength":96200,
			"byteOffset":25522208,
			"target":34962
		},
		{
			"buffer":0,
			"byteLength":96200,
			"byteOffset":25618408,
			"target":34962
		},
		{
			"buffer":0,
			"byteLength":96200,
			"byteOffset":25714608,
			"target":34962
		},
		{
			"buffer":0,
			"byteLength":96200,
			"byteOffset":25810808,
			"target":34962
		},
		{
			"buffer":0,
			"byteLength":96200,
			"byteOffset":25907008,
			"target":34962
		},
		{
			"buffer":0,
			"byteLength":110682,
			"byteOffset":26003208,
			"target":34963
		},
		{
			"buffer":0,
			"byteLength":12108,
			"byteOffset":26113892,
			"target":34962
		},
		{
			"buffer":0,
			"byteLength":12108,
			"byteOffset":26126000,
			"target":34962
		},
		{
			"buffer":0,
			"byteLength":8072,
			"byteOffset":26138108,
			"target":34962
		},
		{
			"buffer":0,
			"byteLength":8072,
			"byteOffset":26146180,
			"target":34962
		},
		{
			"buffer":0,
			"byteLength":8072,
			"byteOffset":26154252,
			"target":34962
		},
		{
			"buffer":0,
			"byteLength":8072,
			"byteOffset":26162324,
			"target":34962
		},
		{
			"buffer":0,
			"byteLength":8072,
			"byteOffset":26170396,
			"target":34962
		},
		{
			"buffer":0,
			"byteLength":8072,
			"byteOffset":26178468,
			"target":34962
		},
		{
			"buffer":0,
			"byteLength":8072,
			"byteOffset":26186540,
			"target":34962
		},
		{
			"buffer":0,
			"byteLength":5880,
			"byteOffset":26194612,
			"target":34963
		},
		{
			"buffer":0,
			"byteLength":12396,
			"byteOffset":26200492,
			"target":34962
		},
		{
			"buffer":0,
			"byteLength":12396,
			"byteOffset":26212888,
			"target":34962
		},
		{
			"buffer":0,
			"byteLength":8264,
			"byteOffset":26225284,
			"target":34962
		},
		{
			"buffer":0,
			"byteLength":8264,
			"byteOffset":26233548,
			"target":34962
		},
		{
			"buffer":0,
			"byteLength":8264,
			"byteOffset":26241812,
			"target":34962
		},
		{
			"buffer":0,
			"byteLength":8264,
			"byteOffset":26250076,
			"target":34962
		},
		{
			"buffer":0,
			"byteLength":8264,
			"byteOffset":26258340,
			"target":34962
		},
		{
			"buffer":0,
			"byteLength":8264,
			"byteOffset":26266604,
			"target":34962
		},
		{
			"buffer":0,
			"byteLength":8264,
			"byteOffset":26274868,
			"target":34962
		},
		{
			"buffer":0,
			"byteLength":5868,
			"byteOffset":26283132,
			"target":34963
		},
		{
			"buffer":0,
			"byteLength":30336,
			"byteOffset":26289000,
			"target":34962
		},
		{
			"buffer":0,
			"byteLength":30336,
			"byteOffset":26319336,
			"target":34962
		},
		{
			"buffer":0,
			"byteLength":20224,
			"byteOffset":26349672,
			"target":34962
		},
		{
			"buffer":0,
			"byteLength":20224,
			"byteOffset":26369896,
			"target":34962
		},
		{
			"buffer":0,
			"byteLength":20224,
			"byteOffset":26390120,
			"target":34962
		},
		{
			"buffer":0,
			"byteLength":20224,
			"byteOffset":26410344,
			"target":34962
		},
		{
			"buffer":0,
			"byteLength":20224,
			"byteOffset":26430568,
			"target":34962
		},
		{
			"buffer":0,
			"byteLength":20224,
			"byteOffset":26450792,
			"target":34962
		},
		{
			"buffer":0,
			"byteLength":20224,
			"byteOffset":26471016,
			"target":34962
		},
		{
			"buffer":0,
			"byteLength":19956,
			"byteOffset":26491240,
			"target":34963
		},
		{
			"buffer":0,
			"byteLength":3816,
			"byteOffset":26511196,
			"target":34962
		},
		{
			"buffer":0,
			"byteLength":3816,
			"byteOffset":26515012,
			"target":34962
		},
		{
			"buffer":0,
			"byteLength":2544,
			"byteOffset":26518828,
			"target":34962
		},
		{
			"buffer":0,
			"byteLength":2544,
			"byteOffset":26521372,
			"target":34962
		},
		{
			"buffer":0,
			"byteLength":2544,
			"byteOffset":26523916,
			"target":34962
		},
		{
			"buffer":0,
			"byteLength":2544,
			"byteOffset":26526460,
			"target":34962
		},
		{
			"buffer":0,
			"byteLength":2544,
			"byteOffset":26529004,
			"target":34962
		},
		{
			"buffer":0,
			"byteLength":2544,
			"byteOffset":26531548,
			"target":34962
		},
		{
			"buffer":0,
			"byteLength":2544,
			"byteOffset":26534092,
			"target":34962
		},
		{
			"buffer":0,
			"byteLength":2496,
			"byteOffset":26536636,
			"target":34963
		},
		{
			"buffer":0,
			"byteLength":18024,
			"byteOffset":26539132,
			"target":34962
		},
		{
			"buffer":0,
			"byteLength":18024,
			"byteOffset":26557156,
			"target":34962
		},
		{
			"buffer":0,
			"byteLength":12016,
			"byteOffset":26575180,
			"target":34962
		},
		{
			"buffer":0,
			"byteLength":12016,
			"byteOffset":26587196,
			"target":34962
		},
		{
			"buffer":0,
			"byteLength":12016,
			"byteOffset":26599212,
			"target":34962
		},
		{
			"buffer":0,
			"byteLength":12016,
			"byteOffset":26611228,
			"target":34962
		},
		{
			"buffer":0,
			"byteLength":12016,
			"byteOffset":26623244,
			"target":34962
		},
		{
			"buffer":0,
			"byteLength":12016,
			"byteOffset":26635260,
			"target":34962
		},
		{
			"buffer":0,
			"byteLength":12016,
			"byteOffset":26647276,
			"target":34962
		},
		{
			"buffer":0,
			"byteLength":8304,
			"byteOffset":26659292,
			"target":34963
		},
		{
			"buffer":0,
			"byteLength":166968,
			"byteOffset":26667596,
			"target":34962
		},
		{
			"buffer":0,
			"byteLength":166968,
			"byteOffset":26834564,
			"target":34962
		},
		{
			"buffer":0,
			"byteLength":111312,
			"byteOffset":27001532,
			"target":34962
		},
		{
			"buffer":0,
			"byteLength":111312,
			"byteOffset":27112844,
			"target":34962
		},
		{
			"buffer":0,
			"byteLength":111312,
			"byteOffset":27224156,
			"target":34962
		},
		{
			"buffer":0,
			"byteLength":111312,
			"byteOffset":27335468,
			"target":34962
		},
		{
			"buffer":0,
			"byteLength":111312,
			"byteOffset":27446780,
			"target":34962
		},
		{
			"buffer":0,
			"byteLength":111312,
			"byteOffset":27558092,
			"target":34962
		},
		{
			"buffer":0,
			"byteLength":111312,
			"byteOffset":27669404,
			"target":34962
		},
		{
			"buffer":0,
			"byteLength":53952,
			"byteOffset":27780716,
			"target":34963
		},
		{
			"buffer":0,
			"byteLength":20784,
			"byteOffset":27834668,
			"target":34962
		},
		{
			"buffer":0,
			"byteLength":20784,
			"byteOffset":27855452,
			"target":34962
		},
		{
			"buffer":0,
			"byteLength":13856,
			"byteOffset":27876236,
			"target":34962
		},
		{
			"buffer":0,
			"byteLength":13856,
			"byteOffset":27890092,
			"target":34962
		},
		{
			"buffer":0,
			"byteLength":13856,
			"byteOffset":27903948,
			"target":34962
		},
		{
			"buffer":0,
			"byteLength":13856,
			"byteOffset":27917804,
			"target":34962
		},
		{
			"buffer":0,
			"byteLength":13856,
			"byteOffset":27931660,
			"target":34962
		},
		{
			"buffer":0,
			"byteLength":13856,
			"byteOffset":27945516,
			"target":34962
		},
		{
			"buffer":0,
			"byteLength":13856,
			"byteOffset":27959372,
			"target":34962
		},
		{
			"buffer":0,
			"byteLength":5184,
			"byteOffset":27973228,
			"target":34963
		},
		{
			"buffer":0,
			"byteLength":1352316,
			"byteOffset":27978412,
			"target":34962
		},
		{
			"buffer":0,
			"byteLength":1352316,
			"byteOffset":29330728,
			"target":34962
		},
		{
			"buffer":0,
			"byteLength":901544,
			"byteOffset":30683044,
			"target":34962
		},
		{
			"buffer":0,
			"byteLength":901544,
			"byteOffset":31584588,
			"target":34962
		},
		{
			"buffer":0,
			"byteLength":901544,
			"byteOffset":32486132,
			"target":34962
		},
		{
			"buffer":0,
			"byteLength":901544,
			"byteOffset":33387676,
			"target":34962
		},
		{
			"buffer":0,
			"byteLength":901544,
			"byteOffset":34289220,
			"target":34962
		},
		{
			"buffer":0,
			"byteLength":901544,
			"byteOffset":35190764,
			"target":34962
		},
		{
			"buffer":0,
			"byteLength":901544,
			"byteOffset":36092308,
			"target":34962
		},
		{
			"buffer":0,
			"byteLength":887976,
			"byteOffset":36993852,
			"target":34963
		},
		{
			"buffer":0,
			"byteLength":151896,
			"byteOffset":37881828,
			"target":34962
		},
		{
			"buffer":0,
			"byteLength":151896,
			"byteOffset":38033724,
			"target":34962
		},
		{
			"buffer":0,
			"byteLength":101264,
			"byteOffset":38185620,
			"target":34962
		},
		{
			"buffer":0,
			"byteLength":101264,
			"byteOffset":38286884,
			"target":34962
		},
		{
			"buffer":0,
			"byteLength":101264,
			"byteOffset":38388148,
			"target":34962
		},
		{
			"buffer":0,
			"byteLength":101264,
			"byteOffset":38489412,
			"target":34962
		},
		{
			"buffer":0,
			"byteLength":101264,
			"byteOffset":38590676,
			"target":34962
		},
		{
			"buffer":0,
			"byteLength":101264,
			"byteOffset":38691940,
			"target":34962
		},
		{
			"buffer":0,
			"byteLength":101264,
			"byteOffset":38793204,
			"target":34962
		},
		{
			"buffer":0,
			"byteLength":71232,
			"byteOffset":38894468,
			"target":34963
		},
		{
			"buffer":0,
			"byteLength":394188,
			"byteOffset":38965700,
			"target":34962
		},
		{
			"buffer":0,
			"byteLength":394188,
			"byteOffset":39359888,
			"target":34962
		},
		{
			"buffer":0,
			"byteLength":262792,
			"byteOffset":39754076,
			"target":34962
		},
		{
			"buffer":0,
			"byteLength":262792,
			"byteOffset":40016868,
			"target":34962
		},
		{
			"buffer":0,
			"byteLength":262792,
			"byteOffset":40279660,
			"target":34962
		},
		{
			"buffer":0,
			"byteLength":262792,
			"byteOffset":40542452,
			"target":34962
		},
		{
			"buffer":0,
			"byteLength":262792,
			"byteOffset":40805244,
			"target":34962
		},
		{
			"buffer":0,
			"byteLength":262792,
			"byteOffset":41068036,
			"target":34962
		},
		{
			"buffer":0,
			"byteLength":262792,
			"byteOffset":41330828,
			"target":34962
		},
		{
			"buffer":0,
			"byteLength":113280,
			"byteOffset":41593620,
			"target":34963
		},
		{
			"buffer":0,
			"byteLength":55392,
			"byteOffset":41706900,
			"target":34962
		},
		{
			"buffer":0,
			"byteLength":55392,
			"byteOffset":41762292,
			"target":34962
		},
		{
			"buffer":0,
			"byteLength":36928,
			"byteOffset":41817684,
			"target":34962
		},
		{
			"buffer":0,
			"byteLength":36928,
			"byteOffset":41854612,
			"target":34962
		},
		{
			"buffer":0,
			"byteLength":36928,
			"byteOffset":41891540,
			"target":34962
		},
		{
			"buffer":0,
			"byteLength":36928,
			"byteOffset":41928468,
			"target":34962
		},
		{
			"buffer":0,
			"byteLength":36928,
			"byteOffset":41965396,
			"target":34962
		},
		{
			"buffer":0,
			"byteLength":36928,
			"byteOffset":42002324,
			"target":34962
		},
		{
			"buffer":0,
			"byteLength":36928,
			"byteOffset":42039252,
			"target":34962
		},
		{
			"buffer":0,
			"byteLength":13824,
			"byteOffset":42076180,
			"target":34963
		},
		{
			"buffer":0,
			"byteLength":13848,
			"byteOffset":42090004,
			"target":34962
		},
		{
			"buffer":0,
			"byteLength":13848,
			"byteOffset":42103852,
			"target":34962
		},
		{
			"buffer":0,
			"byteLength":9232,
			"byteOffset":42117700,
			"target":34962
		},
		{
			"buffer":0,
			"byteLength":9232,
			"byteOffset":42126932,
			"target":34962
		},
		{
			"buffer":0,
			"byteLength":9232,
			"byteOffset":42136164,
			"target":34962
		},
		{
			"buffer":0,
			"byteLength":9232,
			"byteOffset":42145396,
			"target":34962
		},
		{
			"buffer":0,
			"byteLength":9232,
			"byteOffset":42154628,
			"target":34962
		},
		{
			"buffer":0,
			"byteLength":9232,
			"byteOffset":42163860,
			"target":34962
		},
		{
			"buffer":0,
			"byteLength":9232,
			"byteOffset":42173092,
			"target":34962
		},
		{
			"buffer":0,
			"byteLength":6696,
			"byteOffset":42182324,
			"target":34963
		},
		{
			"buffer":0,
			"byteLength":84336,
			"byteOffset":42189020,
			"target":34962
		},
		{
			"buffer":0,
			"byteLength":84336,
			"byteOffset":42273356,
			"target":34962
		},
		{
			"buffer":0,
			"byteLength":56224,
			"byteOffset":42357692,
			"target":34962
		},
		{
			"buffer":0,
			"byteLength":56224,
			"byteOffset":42413916,
			"target":34962
		},
		{
			"buffer":0,
			"byteLength":56224,
			"byteOffset":42470140,
			"target":34962
		},
		{
			"buffer":0,
			"byteLength":56224,
			"byteOffset":42526364,
			"target":34962
		},
		{
			"buffer":0,
			"byteLength":56224,
			"byteOffset":42582588,
			"target":34962
		},
		{
			"buffer":0,
			"byteLength":56224,
			"byteOffset":42638812,
			"target":34962
		},
		{
			"buffer":0,
			"byteLength":56224,
			"byteOffset":42695036,
			"target":34962
		},
		{
			"buffer":0,
			"byteLength":61956,
			"byteOffset":42751260,
			"target":34963
		},
		{
			"buffer":0,
			"byteLength":48588,
			"byteOffset":42813216,
			"target":34962
		},
		{
			"buffer":0,
			"byteLength":48588,
			"byteOffset":42861804,
			"target":34962
		},
		{
			"buffer":0,
			"byteLength":32392,
			"byteOffset":42910392,
			"target":34962
		},
		{
			"buffer":0,
			"byteLength":32392,
			"byteOffset":42942784,
			"target":34962
		},
		{
			"buffer":0,
			"byteLength":32392,
			"byteOffset":42975176,
			"target":34962
		},
		{
			"buffer":0,
			"byteLength":32392,
			"byteOffset":43007568,
			"target":34962
		},
		{
			"buffer":0,
			"byteLength":32392,
			"byteOffset":43039960,
			"target":34962
		},
		{
			"buffer":0,
			"byteLength":32392,
			"byteOffset":43072352,
			"target":34962
		},
		{
			"buffer":0,
			"byteLength":32392,
			"byteOffset":43104744,
			"target":34962
		},
		{
			"buffer":0,
			"byteLength":23520,
			"byteOffset":43137136,
			"target":34963
		},
		{
			"buffer":0,
			"byteLength":49452,
			"byteOffset":43160656,
			"target":34962
		},
		{
			"buffer":0,
			"byteLength":49452,
			"byteOffset":43210108,
			"target":34962
		},
		{
			"buffer":0,
			"byteLength":32968,
			"byteOffset":43259560,
			"target":34962
		},
		{
			"buffer":0,
			"byteLength":32968,
			"byteOffset":43292528,
			"target":34962
		},
		{
			"buffer":0,
			"byteLength":32968,
			"byteOffset":43325496,
			"target":34962
		},
		{
			"buffer":0,
			"byteLength":32968,
			"byteOffset":43358464,
			"target":34962
		},
		{
			"buffer":0,
			"byteLength":32968,
			"byteOffset":43391432,
			"target":34962
		},
		{
			"buffer":0,
			"byteLength":32968,
			"byteOffset":43424400,
			"target":34962
		},
		{
			"buffer":0,
			"byteLength":32968,
			"byteOffset":43457368,
			"target":34962
		},
		{
			"buffer":0,
			"byteLength":23472,
			"byteOffset":43490336,
			"target":34963
		},
		{
			"buffer":0,
			"byteLength":581520,
			"byteOffset":43513808,
			"target":34962
		},
		{
			"buffer":0,
			"byteLength":581520,
			"byteOffset":44095328,
			"target":34962
		},
		{
			"buffer":0,
			"byteLength":387680,
			"byteOffset":44676848,
			"target":34962
		},
		{
			"buffer":0,
			"byteLength":387680,
			"byteOffset":45064528,
			"target":34962
		},
		{
			"buffer":0,
			"byteLength":387680,
			"byteOffset":45452208,
			"target":34962
		},
		{
			"buffer":0,
			"byteLength":387680,
			"byteOffset":45839888,
			"target":34962
		},
		{
			"buffer":0,
			"byteLength":387680,
			"byteOffset":46227568,
			"target":34962
		},
		{
			"buffer":0,
			"byteLength":387680,
			"byteOffset":46615248,
			"target":34962
		},
		{
			"buffer":0,
			"byteLength":387680,
			"byteOffset":47002928,
			"target":34962
		},
		{
			"buffer":0,
			"byteLength":300168,
			"byteOffset":47390608,
			"target":34963
		},
		{
			"buffer":0,
			"byteLength":291024,
			"byteOffset":47690776,
			"target":34962
		},
		{
			"buffer":0,
			"byteLength":291024,
			"byteOffset":47981800,
			"target":34962
		},
		{
			"buffer":0,
			"byteLength":194016,
			"byteOffset":48272824,
			"target":34962
		},
		{
			"buffer":0,
			"byteLength":194016,
			"byteOffset":48466840,
			"target":34962
		},
		{
			"buffer":0,
			"byteLength":194016,
			"byteOffset":48660856,
			"target":34962
		},
		{
			"buffer":0,
			"byteLength":194016,
			"byteOffset":48854872,
			"target":34962
		},
		{
			"buffer":0,
			"byteLength":194016,
			"byteOffset":49048888,
			"target":34962
		},
		{
			"buffer":0,
			"byteLength":194016,
			"byteOffset":49242904,
			"target":34962
		},
		{
			"buffer":0,
			"byteLength":194016,
			"byteOffset":49436920,
			"target":34962
		},
		{
			"buffer":0,
			"byteLength":145512,
			"byteOffset":49630936,
			"target":34963
		},
		{
			"buffer":0,
			"byteLength":100572,
			"byteOffset":49776448,
			"target":34962
		},
		{
			"buffer":0,
			"byteLength":100572,
			"byteOffset":49877020,
			"target":34962
		},
		{
			"buffer":0,
			"byteLength":67048,
			"byteOffset":49977592,
			"target":34962
		},
		{
			"buffer":0,
			"byteLength":67048,
			"byteOffset":50044640,
			"target":34962
		},
		{
			"buffer":0,
			"byteLength":67048,
			"byteOffset":50111688,
			"target":34962
		},
		{
			"buffer":0,
			"byteLength":67048,
			"byteOffset":50178736,
			"target":34962
		},
		{
			"buffer":0,
			"byteLength":67048,
			"byteOffset":50245784,
			"target":34962
		},
		{
			"buffer":0,
			"byteLength":67048,
			"byteOffset":50312832,
			"target":34962
		},
		{
			"buffer":0,
			"byteLength":67048,
			"byteOffset":50379880,
			"target":34962
		},
		{
			"buffer":0,
			"byteLength":62244,
			"byteOffset":50446928,
			"target":34963
		},
		{
			"buffer":0,
			"byteLength":864,
			"byteOffset":50509172,
			"target":34962
		},
		{
			"buffer":0,
			"byteLength":864,
			"byteOffset":50510036,
			"target":34962
		},
		{
			"buffer":0,
			"byteLength":576,
			"byteOffset":50510900,
			"target":34962
		},
		{
			"buffer":0,
			"byteLength":576,
			"byteOffset":50511476,
			"target":34962
		},
		{
			"buffer":0,
			"byteLength":576,
			"byteOffset":50512052,
			"target":34962
		},
		{
			"buffer":0,
			"byteLength":576,
			"byteOffset":50512628,
			"target":34962
		},
		{
			"buffer":0,
			"byteLength":576,
			"byteOffset":50513204,
			"target":34962
		},
		{
			"buffer":0,
			"byteLength":576,
			"byteOffset":50513780,
			"target":34962
		},
		{
			"buffer":0,
			"byteLength":576,
			"byteOffset":50514356,
			"target":34962
		},
		{
			"buffer":0,
			"byteLength":432,
			"byteOffset":50514932,
			"target":34963
		},
		{
			"buffer":0,
			"byteLength":34632,
			"byteOffset":50515364,
			"target":34962
		},
		{
			"buffer":0,
			"byteLength":34632,
			"byteOffset":50549996,
			"target":34962
		},
		{
			"buffer":0,
			"byteLength":23088,
			"byteOffset":50584628,
			"target":34962
		},
		{
			"buffer":0,
			"byteLength":23088,
			"byteOffset":50607716,
			"target":34962
		},
		{
			"buffer":0,
			"byteLength":23088,
			"byteOffset":50630804,
			"target":34962
		},
		{
			"buffer":0,
			"byteLength":23088,
			"byteOffset":50653892,
			"target":34962
		},
		{
			"buffer":0,
			"byteLength":23088,
			"byteOffset":50676980,
			"target":34962
		},
		{
			"buffer":0,
			"byteLength":23088,
			"byteOffset":50700068,
			"target":34962
		},
		{
			"buffer":0,
			"byteLength":23088,
			"byteOffset":50723156,
			"target":34962
		},
		{
			"buffer":0,
			"byteLength":8640,
			"byteOffset":50746244,
			"target":34963
		},
		{
			"buffer":0,
			"byteLength":19584,
			"byteOffset":50754884,
			"target":34962
		},
		{
			"buffer":0,
			"byteLength":19584,
			"byteOffset":50774468,
			"target":34962
		},
		{
			"buffer":0,
			"byteLength":13056,
			"byteOffset":50794052,
			"target":34962
		},
		{
			"buffer":0,
			"byteLength":13056,
			"byteOffset":50807108,
			"target":34962
		},
		{
			"buffer":0,
			"byteLength":13056,
			"byteOffset":50820164,
			"target":34962
		},
		{
			"buffer":0,
			"byteLength":13056,
			"byteOffset":50833220,
			"target":34962
		},
		{
			"buffer":0,
			"byteLength":13056,
			"byteOffset":50846276,
			"target":34962
		},
		{
			"buffer":0,
			"byteLength":13056,
			"byteOffset":50859332,
			"target":34962
		},
		{
			"buffer":0,
			"byteLength":13056,
			"byteOffset":50872388,
			"target":34962
		},
		{
			"buffer":0,
			"byteLength":4896,
			"byteOffset":50885444,
			"target":34963
		},
		{
			"buffer":0,
			"byteLength":12096,
			"byteOffset":50890340,
			"target":34962
		},
		{
			"buffer":0,
			"byteLength":12096,
			"byteOffset":50902436,
			"target":34962
		},
		{
			"buffer":0,
			"byteLength":8064,
			"byteOffset":50914532,
			"target":34962
		},
		{
			"buffer":0,
			"byteLength":8064,
			"byteOffset":50922596,
			"target":34962
		},
		{
			"buffer":0,
			"byteLength":8064,
			"byteOffset":50930660,
			"target":34962
		},
		{
			"buffer":0,
			"byteLength":8064,
			"byteOffset":50938724,
			"target":34962
		},
		{
			"buffer":0,
			"byteLength":8064,
			"byteOffset":50946788,
			"target":34962
		},
		{
			"buffer":0,
			"byteLength":8064,
			"byteOffset":50954852,
			"target":34962
		},
		{
			"buffer":0,
			"byteLength":8064,
			"byteOffset":50962916,
			"target":34962
		},
		{
			"buffer":0,
			"byteLength":3024,
			"byteOffset":50970980,
			"target":34963
		},
		{
			"buffer":0,
			"byteLength":1800,
			"byteOffset":50974004,
			"target":34962
		},
		{
			"buffer":0,
			"byteLength":1800,
			"byteOffset":50975804,
			"target":34962
		},
		{
			"buffer":0,
			"byteLength":1200,
			"byteOffset":50977604,
			"target":34962
		},
		{
			"buffer":0,
			"byteLength":1200,
			"byteOffset":50978804,
			"target":34962
		},
		{
			"buffer":0,
			"byteLength":1200,
			"byteOffset":50980004,
			"target":34962
		},
		{
			"buffer":0,
			"byteLength":1200,
			"byteOffset":50981204,
			"target":34962
		},
		{
			"buffer":0,
			"byteLength":1200,
			"byteOffset":50982404,
			"target":34962
		},
		{
			"buffer":0,
			"byteLength":1200,
			"byteOffset":50983604,
			"target":34962
		},
		{
			"buffer":0,
			"byteLength":1200,
			"byteOffset":50984804,
			"target":34962
		},
		{
			"buffer":0,
			"byteLength":432,
			"byteOffset":50986004,
			"target":34963
		}
	],
	"samplers":[
		{
			"magFilter":9729,
			"minFilter":9987
		}
	],
	"buffers":[
		{
			"byteLength":50986436,
			"uri":"Model.bin"
		}
	]
}
