# FreeCAD v1.0 build1 Arch module
# https://www.freecad.org
mtllib Sphere128x64.mtl
o environment
v 5600.0 3000.0 -0.0
v 5600.0 3000.0 -250.0
v 5600.0 3200.0 -0.0
v 5600.0 3200.0 -250.0
v 7000.0 3200.0 -0.0
v 7000.0 3200.0 -250.0
v 7000.0 4800.0 -0.0
v 7000.0 4800.0 -250.0
v 5600.0 4800.0 -250.0
v 5600.0 4800.0 -0.0
v 4600.0 4800.0 -0.0
v 4600.0 5000.0 -0.0
v 4600.0 4800.0 -250.0
v 4600.0 5000.0 -250.0
v 4600.0 3000.0 -0.0
v 4600.0 3200.0 -0.0
v 7700.0 8300.0 0.0
v 5600.0 5000.0 -0.0
v 7700.0 7600.0 0.0
v 8400.0 5000.0 0.0
v 8400.0 7600.0 0.0
v 8400.0 8800.0 0.0
v 3200.0 8800.0 0.0
v 3200.0 5000.0 0.0
v 8400.0 8300.0 0.0
v 3200.0 3200.0 -0.0
v 3200.0 4800.0 -0.0
v 3200.0 5000.0 -250.0
v 3200.0 8800.0 -250.0
v 7700.0 8300.0 -250.0
v 8400.0 8800.0 -250.0
v 5600.0 5000.0 -250.0
v 8400.0 8300.0 -250.0
v 8400.0 5000.0 -250.0
v 7700.0 7600.0 -250.0
v 8400.0 7600.0 -250.0
v 3200.0 4800.0 -250.0
v 3200.0 3200.0 -250.0
v 4600.0 3200.0 -250.0
v 4600.0 3000.0 -250.0
v 7200.0 4800.0 -250.0
v 7200.0 4800.0 3175.735931
v 7200.0 3000.0 -250.0
v 7200.0 3000.0 3175.735931
v 7000.0 3000.0 -250.0
v 7000.0 3000.0 3375.735931
v 7000.0 4800.0 -250.0
v 7000.0 4800.0 3375.735931
v 8600.0 9000.0 -250.0
v 8600.0 9000.0 1775.735931
v 8600.0 4800.0 -250.0
v 8600.0 4800.0 1775.735931
v 8400.0 4800.0 1975.735931
v 8400.0 4800.0 -250.0
v 8400.0 9000.0 -250.0
v 8400.0 9000.0 1975.735931
v 3200.0 3000.0 -250.0
v 3200.0 9000.0 -250.0
v 3200.0 3000.0 3375.735931
v 3200.0 9000.0 3375.735931
v 3000.0 9000.0 3175.735931
v 3000.0 9000.0 -250.0
v 3000.0 3000.0 -250.0
v 3000.0 3000.0 3175.735931
v 8174.0 7600.0 0.0
v 8174.0 5000.0 0.0
v 8150.0 7600.0 0.0
v 8150.0 5000.0 0.0
v 8174.0 8800.0 2201.735931
v 8150.0 8800.0 2225.735931
v 8174.0 8300.0 2201.735931
v 8150.0 8300.0 2225.735931
v 8174.0 8800.0 0.0
v 8174.0 8300.0 0.0
v 8150.0 8800.0 0.0
v 8150.0 8300.0 0.0
v 8150.0 5000.0 2225.735931
v 8174.0 5000.0 2201.735931
v 8150.0 7600.0 2225.735931
v 8174.0 7600.0 2201.735931
v 2700.0 9300.0 3300.0
v 2700.0 2700.0 3300.0
v 5100.0 9300.0 5700.0
v 5100.0 2700.0 5700.0
v 5100.0 9300.0 5275.735931
v 5100.0 2700.0 5275.735931
v 2700.0 9300.0 2875.735931
v 2700.0 2700.0 2875.735931
v 7500.0 2700.0 2875.735931
v 7500.0 2700.0 3300.0
v 5100.0 2700.0 5275.735931
v 5100.0 2700.0 5700.0
v 5100.0 9300.0 5275.735931
v 5100.0 9300.0 5700.0
v 7700.0 7600.0 3100.0
v 8900.0 4500.0 1900.0
v 8400.0 7600.0 2400.0
v 8900.0 9300.0 1900.0
v 8400.0 8300.0 2400.0
v 7500.0 4500.0 3300.0
v 7700.0 8300.0 3100.0
v 8900.0 4500.0 1475.735931
v 7500.0 4500.0 2875.735931
v 7700.0 7600.0 2675.735931
v 7700.0 8300.0 2675.735931
v 8400.0 8300.0 1975.735931
v 8900.0 9300.0 1475.735931
v 8400.0 7600.0 1975.735931
v 3000.0 3000.0 3600.0
v 5100.0 3000.0 5700.0
v 3000.0 9000.0 3600.0
v 5100.0 9000.0 5700.0
v 8600.0 4800.0 2200.0
v 8600.0 9000.0 2200.0
v 7200.0 4800.0 3600.0
v 7200.0 3000.0 3600.0
v 7200.0 3000.0 -300.0
v 7200.0 4800.0 -300.0
v 3000.0 9000.0 -300.0
v 8600.0 9000.0 -300.0
v 3000.0 3000.0 -300.0
v 8600.0 4800.0 -300.0
v 5800.0 4248.137819 -550.0
v 6662.323996 3800.0 -550.0
v 5800.0 3800.0 -598.692031
v 5800.0 3401.153396 -550.0
v 5508.770683 3800.0 -550.0
v 6034.539861 3565.460139 -550.0
v 5612.046143 3987.953857 -550.0
v 3350.0 5150.0 -250.0
v 8250.0 5150.0 -250.0
v 7600.0 7500.0 -250.0
v 8250.0 7500.0 -250.0
v 3350.0 8650.0 -250.0
v 7600.0 8650.0 -250.0
v 3350.0 3350.0 -250.0
v 6850.0 3350.0 -250.0
v 3350.0 4700.0 -250.0
v 6850.0 4700.0 -250.0
v 3350.0 4700.0 -550.0
v 6850.0 4700.0 -550.0
v 6850.0 3350.0 -550.0
v 3350.0 3350.0 -550.0
v 3350.0 8650.0 -550.0
v 7600.0 8650.0 -550.0
v 3350.0 5150.0 -550.0
v 7600.0 7500.0 -550.0
v 8250.0 5150.0 -550.0
v 8250.0 7500.0 -550.0
v 1000.0 0.0 -0.0
v 1000.0 1000.0 -0.0
v 1000.0 0.0 1000.0
v 1000.0 1000.0 1000.0
v 0.0 1000.0 -0.0
v 0.0 1000.0 1000.0
v 0.0 0.0 -0.0
v 0.0 0.0 1000.0
v -29100.673783 -14350.259814 -1295.000002
v -29100.673783 -14350.259814 -1300.000001
v -29273.878853 -14450.259808 -1295.000002
v -29216.786042 -14529.932708 -1295.000002
v -29066.418096 -14398.063554 -1295.000002
v -29023.494584 -14438.26581 -1295.000002
v -29145.246855 -14596.936468 -1295.000002
v -28973.552755 -14469.321625 -1295.000002
v -28918.511866 -14490.037559 -1295.000002
v -29062.010486 -14648.696179 -1295.000002
v -28860.487091 -14499.617479 -1295.000002
v -28801.70829 -14497.693268 -1295.000002
v -28744.434311 -14484.338849 -1295.000002
v -28970.275672 -14683.222713 -1295.000002
v -28690.866145 -14460.067439 -1295.000002
v -28590.866151 -14633.27251 -1295.000002
v -28873.567725 -14699.189265 -1295.000002
v -28775.60306 -14695.982224 -1295.000002
v -28680.146427 -14673.72486 -1295.000002
v -28690.866145 -14460.067439 -1300.000001
v -28590.866151 -14633.27251 -1300.000001
v -29145.246855 -14596.936468 -1300.000001
v -29216.786042 -14529.932708 -1300.000001
v -29273.878853 -14450.259808 -1300.000001
v -29066.418096 -14398.063554 -1300.000001
v -29023.494584 -14438.26581 -1300.000001
v -28973.552755 -14469.321625 -1300.000001
v -28918.511866 -14490.037559 -1300.000001
v -29062.010486 -14648.696179 -1300.000001
v -28860.487091 -14499.617479 -1300.000001
v -28801.70829 -14497.693268 -1300.000001
v -28744.434311 -14484.338849 -1300.000001
v -28970.275672 -14683.222713 -1300.000001
v -28873.567725 -14699.189265 -1300.000001
v -28775.60306 -14695.982224 -1300.000001
v -28680.146427 -14673.72486 -1300.000001
v -28367.393151 -14944.76063 -1300.0
v -28355.770249 -14932.87708 -1300.0
v -28367.393151 -14944.76063 -1295.000002
v -28355.770249 -14932.87708 -1295.000002
v -28345.887374 -14919.92891 -1300.0
v -28345.887374 -14919.92891 -1295.000002
v -28534.221143 -14962.133621 -1300.0
v -28534.221143 -14962.133621 -1295.000002
v -28545.653031 -14951.816997 -1300.0
v -28545.653031 -14951.816997 -1295.000002
v -28521.419048 -14971.029917 -1300.0
v -28521.419048 -14971.029917 -1295.000002
v -28580.904755 -14864.811868 -1300.0
v -28580.904755 -14864.811868 -1295.000002
v -28579.40052 -14849.119997 -1300.0
v -28579.40052 -14849.119997 -1295.000002
v -28428.420718 -14979.777099 -1300.0
v -28412.094849 -14973.618552 -1300.0
v -28428.420718 -14979.777099 -1295.000002
v -28412.094849 -14973.618552 -1295.000002
v -28395.859037 -14965.333868 -1300.0
v -28395.859037 -14965.333868 -1295.000002
v -28440.067638 -14740.759725 -1295.000002
v -28416.447386 -14743.724774 -1295.000002
v -28440.067638 -14740.759725 -1300.0
v -28416.447386 -14743.724774 -1300.0
v -28394.51538 -14751.415761 -1300.0
v -28394.51538 -14751.415761 -1295.000002
v -28375.136909 -14763.339999 -1300.0
v -28375.136909 -14763.339999 -1295.000002
v -28358.311972 -14779.497489 -1300.0
v -28358.311972 -14779.497489 -1295.000002
v -28344.040571 -14799.88823 -1300.0
v -28344.040571 -14799.88823 -1295.000002
v -28331.381469 -14829.946564 -1300.0
v -28331.381469 -14829.946564 -1295.000002
v -28328.321676 -14845.411439 -1300.0
v -28328.321676 -14845.411439 -1295.000002
v -28368.206607 -14814.03411 -1300.0
v -28368.206607 -14814.03411 -1295.000002
v -28377.824655 -14800.340873 -1300.0
v -28377.824655 -14800.340873 -1295.000002
v -28359.315882 -14835.595269 -1300.0
v -28359.315882 -14835.595269 -1295.000002
v -28380.75608 -14955.579559 -1300.0
v -28380.75608 -14955.579559 -1295.000002
v -28492.912745 -14982.887515 -1300.0
v -28477.510663 -14985.430314 -1300.0
v -28492.912745 -14982.887515 -1295.000002
v -28477.510663 -14985.430314 -1295.000002
v -28461.342628 -14985.715778 -1300.0
v -28461.342628 -14985.715778 -1295.000002
v -28515.866151 -14763.17632 -1295.000002
v -28489.777021 -14750.485498 -1295.000002
v -28515.866151 -14763.17632 -1300.0
v -28489.777021 -14750.485498 -1300.0
v -28464.51085 -14743.013299 -1295.000002
v -28464.51085 -14743.013299 -1300.0
v -28327.441721 -14861.166785 -1300.0
v -28327.441721 -14861.166785 -1295.000002
v -28541.34601 -14832.128668 -1300.0
v -28530.944177 -14817.501393 -1300.0
v -28541.34601 -14832.128668 -1295.000002
v -28530.944177 -14817.501393 -1295.000002
v -28548.21251 -14848.163527 -1300.0
v -28548.21251 -14848.163527 -1295.000002
v -28541.404846 -14781.986939 -1295.000002
v -28541.404846 -14781.986939 -1300.0
v -28561.970326 -14806.057966 -1295.000002
v -28561.970326 -14806.057966 -1300.0
v -28569.933305 -14819.743046 -1295.000002
v -28569.933305 -14819.743046 -1300.0
v -28517.007009 -14804.281701 -1300.0
v -28517.007009 -14804.281701 -1295.000002
v -28444.836644 -14983.809508 -1300.0
v -28444.836644 -14983.809508 -1295.000002
v -28564.406187 -14926.922767 -1300.0
v -28564.406187 -14926.922767 -1295.000002
v -28571.945144 -14911.769001 -1300.0
v -28571.945144 -14911.769001 -1295.000002
v -28555.714712 -14940.080045 -1300.0
v -28555.714712 -14940.080045 -1295.000002
v -28328.752049 -14876.764854 -1300.0
v -28328.752049 -14876.764854 -1295.000002
v -28337.974875 -14906.145916 -1300.0
v -28332.2631 -14891.757898 -1300.0
v -28337.974875 -14906.145916 -1295.000002
v -28332.2631 -14891.757898 -1295.000002
v -28336.6211 -14814.772162 -1300.0
v -28336.6211 -14814.772162 -1295.000002
v -28577.207892 -14896.365929 -1300.0
v -28577.207892 -14896.365929 -1295.000002
v -28580.194428 -14880.713552 -1300.0
v -28580.194428 -14880.713552 -1295.000002
v -28575.74337 -14834.097056 -1295.000002
v -28575.74337 -14834.097056 -1300.0
v -28499.534508 -14792.469593 -1300.0
v -28499.534508 -14792.469593 -1295.000002
v -28507.548873 -14978.087383 -1300.0
v -28507.548873 -14978.087383 -1295.000002
v -28540.385359 -14912.860724 -1300.0
v -28540.385359 -14912.860724 -1295.000002
v -28530.213726 -14927.250809 -1300.0
v -28530.213726 -14927.250809 -1295.000002
v -28547.633862 -14897.109688 -1300.0
v -28547.633862 -14897.109688 -1295.000002
v -28476.444159 -14780.935333 -1300.0
v -28476.444159 -14780.935333 -1295.000002
v -28455.237231 -14774.082385 -1300.0
v -28455.237231 -14774.082385 -1295.000002
v -28551.547437 -14864.761089 -1300.0
v -28551.547437 -14864.761089 -1295.000002
v -29381.123801 -13510.314292 -1300.000001
v -29381.123801 -13510.314292 -1295.000003
v -29397.723398 -13481.562946 -1300.000001
v -29397.723398 -13481.562946 -1295.000003
v -29306.00643 -13640.421395 -1300.000001
v -29306.00643 -13640.421395 -1295.000003
v -29321.683828 -13613.267346 -1300.000001
v -29321.683828 -13613.267346 -1295.000003
v -29059.428086 -13575.89125 -1300.000001
v -29059.428086 -13575.89125 -1295.000003
v -29315.106347 -13465.035462 -1295.000003
v -29147.959273 -13422.550735 -1295.000003
v -29315.106347 -13465.035462 -1300.000001
v -29147.959273 -13422.550735 -1300.000001
v -28310.226634 -13819.354412 -1300.000001
v -28142.946073 -13722.774935 -1300.000001
v -28310.226634 -13819.354412 -1295.000003
v -28142.946073 -13722.774935 -1295.000003
v -28325.820196 -13792.345571 -1295.000003
v -28112.944065 -13669.44148 -1295.000003
v -28096.260631 -13698.338035 -1295.000003
v -28245.672644 -13931.165203 -1295.000003
v -28198.841993 -13906.644467 -1295.000003
v -28228.98921 -13960.061759 -1295.000003
v -28031.706641 -13810.148827 -1295.000003
v -28016.113079 -13837.157667 -1295.000003
v -29284.286911 -13609.294896 -1300.000001
v -29251.659668 -13581.551407 -1300.000001
v -29284.286911 -13609.294896 -1295.000003
v -29251.659668 -13581.551407 -1295.000003
v -29231.845244 -13593.151344 -1295.000003
v -29231.845244 -13593.151344 -1300.000001
v -29192.852443 -13461.829031 -1300.000001
v -29192.852443 -13461.829031 -1295.000003
v -29164.271563 -13453.653157 -1300.000001
v -29164.271563 -13453.653157 -1295.000003
v -29185.391008 -13474.752616 -1295.000003
v -29185.391008 -13474.752616 -1300.000001
v -29321.626345 -13444.017479 -1300.000001
v -29200.776175 -13331.069179 -1300.000001
v -29321.626345 -13444.017479 -1295.000003
v -29200.776175 -13331.069179 -1295.000003
v -29217.459609 -13302.172623 -1300.000001
v -29359.991137 -13478.171332 -1300.000001
v -29128.341567 -13456.529599 -1300.000001
v -29218.480878 -13549.230024 -1300.000001
v -29075.776175 -13547.57553 -1300.000001
v -29359.991137 -13478.171332 -1295.000003
v -29217.459609 -13302.172623 -1295.000003
v -29128.341567 -13456.529599 -1295.000003
v -29218.480878 -13549.230024 -1295.000003
v -29075.776175 -13547.57553 -1295.000003
v -28356.95625 -14858.168188 -1300.0
v -28356.95625 -14858.168188 -1295.000002
v -28361.214004 -14880.471609 -1300.0
v -28361.214004 -14880.471609 -1295.000002
v -28451.857921 -14952.093471 -1295.000002
v -28432.598828 -14946.11099 -1295.000002
v -28451.857921 -14952.093471 -1300.0
v -28432.598828 -14946.11099 -1300.0
v -28470.258377 -14954.155709 -1295.000002
v -28470.258377 -14954.155709 -1300.0
v -28402.958172 -14780.534032 -1300.0
v -28402.958172 -14780.534032 -1295.000002
v -28418.473642 -14774.420427 -1300.0
v -28418.473642 -14774.420427 -1295.000002
v -28435.913726 -14771.91075 -1300.0
v -28435.913726 -14771.91075 -1295.000002
v -28487.800196 -14952.297705 -1295.000002
v -28487.800196 -14952.297705 -1300.0
v -28503.921145 -14946.9693 -1300.0
v -28503.921145 -14946.9693 -1295.000002
v -28389.40851 -14789.174181 -1300.0
v -28389.40851 -14789.174181 -1295.000002
v -28551.354555 -14881.076476 -1300.0
v -28551.354555 -14881.076476 -1295.000002
v -28389.408495 -14919.958916 -1295.000002
v -28372.175441 -14901.224274 -1295.000002
v -28389.408495 -14919.958916 -1300.0
v -28372.175441 -14901.224274 -1300.0
v -28412.481098 -14936.208268 -1295.000002
v -28412.481098 -14936.208268 -1300.0
v -28518.058988 -14938.620335 -1300.0
v -28518.058988 -14938.620335 -1295.000002
v -28031.706641 -13810.148827 -1300.000001
v -28016.113079 -13837.157667 -1300.000001
v -28198.841993 -13906.644467 -1300.000001
v -28325.820196 -13792.345571 -1300.000001
v -28112.944065 -13669.44148 -1300.000001
v -28096.260631 -13698.338035 -1300.000001
v -28228.98921 -13960.061759 -1300.000001
v -28245.672644 -13931.165203 -1300.000001
v -28990.866157 -13940.452176 -1300.000001
v -28937.297992 -13916.180766 -1295.000002
v -28990.866157 -13940.452176 -1295.000002
v -29090.866151 -13767.247106 -1300.000001
v -29001.585876 -13726.794755 -1300.000001
v -28906.129243 -13704.537391 -1300.000001
v -28808.164577 -13701.33035 -1300.000001
v -28711.456631 -13717.296903 -1300.000001
v -28619.721817 -13751.823436 -1300.000001
v -28937.297992 -13916.180766 -1300.000001
v -28880.024012 -13902.826347 -1300.000001
v -28536.485448 -13803.583147 -1300.000001
v -28821.245212 -13900.902136 -1300.000001
v -28763.220437 -13910.482057 -1300.000001
v -28708.179547 -13931.19799 -1300.000001
v -28464.946261 -13870.586907 -1300.000001
v -28658.237719 -13962.253805 -1300.000001
v -28615.314207 -14002.456061 -1300.000001
v -28407.853449 -13950.259808 -1300.000001
v -28581.05852 -14050.259802 -1300.000001
v -29090.866151 -13767.247106 -1295.000002
v -29001.585876 -13726.794755 -1295.000002
v -28906.129243 -13704.537391 -1295.000002
v -28808.164577 -13701.33035 -1295.000002
v -28711.456631 -13717.296903 -1295.000002
v -28619.721817 -13751.823436 -1295.000002
v -28880.024012 -13902.826347 -1295.000002
v -28536.485448 -13803.583147 -1295.000002
v -28821.245212 -13900.902136 -1295.000002
v -28763.220437 -13910.482057 -1295.000002
v -28708.179547 -13931.19799 -1295.000002
v -28464.946261 -13870.586907 -1295.000002
v -28658.237719 -13962.253805 -1295.000002
v -28615.314207 -14002.456061 -1295.000002
v -28407.853449 -13950.259808 -1295.000002
v -28581.05852 -14050.259802 -1295.000002
v -28840.866151 -14200.259808 -1300.000001
v -28667.661071 -14100.259808 -1300.000001
v -28740.866151 -14373.464888 -1300.000001
v -28567.661071 -14273.464888 -1300.000001
v -28840.866151 -14200.259808 -1200.000001
v -28740.866151 -14373.464888 -1200.000001
v -28667.661071 -14100.259808 -1200.000001
v -28567.661071 -14273.464888 -1200.000001
v -29454.993275 -14473.993358 -1300.000001
v -29437.11621 -14484.291682 -1300.000001
v -29491.662599 -14504.167349 -1300.000001
v -29477.723398 -14500.015984 -1300.000001
v -29462.333801 -14502.820106 -1300.000001
v -29420.960785 -14499.698246 -1300.000001
v -29454.361378 -14507.165719 -1300.000001
v -29446.558905 -14513.920693 -1300.000001
v -29431.463808 -14534.658724 -1300.000001
v -29407.303791 -14519.161037 -1300.000001
v -29396.351256 -14542.532792 -1300.000001
v -29421.602046 -14557.692178 -1300.000001
v -29390.824303 -14565.309981 -1300.000001
v -29419.901101 -14568.078777 -1300.000001
v -29420.353446 -14577.711958 -1300.000001
v -29422.874219 -14586.675833 -1300.000001
v -29391.012247 -14586.739986 -1300.000001
v -29427.378553 -14595.054513 -1300.000001
v -29442.337909 -14610.056287 -1300.000001
v -29424.711424 -14635.891419 -1300.000001
v -29397.204404 -14606.070187 -1300.000001
v -29408.678291 -14622.665644 -1300.000001
v -29509.227711 -14478.103172 -1300.000001
v -29492.315492 -14471.388283 -1300.000001
v -29522.106516 -14488.031505 -1300.000001
v -29531.410749 -14500.88156 -1300.000001
v -29473.815191 -14469.855285 -1300.000001
v -29536.844376 -14516.579229 -1300.000001
v -29538.111364 -14535.050403 -1300.000001
v -29500.922966 -14512.272792 -1300.000001
v -29505.761074 -14523.342977 -1300.000001
v -29535.228211 -14554.925122 -1300.000001
v -29504.779528 -14542.355271 -1300.000001
v -29527.672283 -14583.815525 -1300.000001
v -29496.413262 -14574.577456 -1300.000001
v -29516.173426 -14627.709326 -1300.000001
v -29486.976982 -14607.730761 -1300.000001
v -29482.785391 -14629.536417 -1300.000001
v -29515.23165 -14642.46092 -1300.000001
v -29517.667591 -14654.128735 -1300.000001
v -29483.169437 -14651.297454 -1300.000001
v -29523.266043 -14663.169356 -1300.000001
v -29531.8118 -14670.039368 -1300.000001
v -29571.648995 -14700.469235 -1300.000001
v -29551.446641 -14704.60896 -1300.000001
v -29488.649039 -14669.514418 -1300.000001
v -29531.714672 -14702.945693 -1300.000001
v -29498.953235 -14684.321287 -1300.000001
v -29513.811061 -14695.852036 -1300.000001
v -29603.37118 -14521.61467 -1300.000001
v -29585.705787 -14546.846503 -1300.000001
v -29621.75478 -14536.512107 -1300.000001
v -29634.884878 -14555.394859 -1300.000001
v -29642.048919 -14577.14969 -1300.000001
v -29598.431859 -14558.380758 -1300.000001
v -29642.534347 -14600.663364 -1300.000001
v -29606.84388 -14570.764098 -1300.000001
v -29611.018363 -14584.91195 -1300.000001
v -29636.22308 -14626.182323 -1300.000001
v -29611.031823 -14601.739743 -1300.000001
v -29606.861649 -14619.903341 -1300.000001
v -29622.997035 -14653.953013 -1300.000001
v -29598.485228 -14638.058609 -1300.000001
v -29588.526356 -14652.541281 -1300.000001
v -29608.407563 -14674.402131 -1300.000001
v -29577.261412 -14663.752938 -1300.000001
v -29590.963759 -14690.153915 -1300.000001
v -29565.365747 -14671.236445 -1300.000001
v -29553.514715 -14674.534664 -1300.000001
v -29542.174628 -14674.013628 -1300.000001
v -29603.37118 -14521.61467 -1295.000001
v -29621.75478 -14536.512107 -1295.000001
v -29585.705787 -14546.846503 -1295.000001
v -29634.884878 -14555.394859 -1295.000001
v -29642.048919 -14577.14969 -1295.000001
v -29598.431859 -14558.380758 -1295.000001
v -29642.534347 -14600.663364 -1295.000001
v -29606.84388 -14570.764098 -1295.000001
v -29611.018363 -14584.91195 -1295.000001
v -29636.22308 -14626.182323 -1295.000001
v -29611.031823 -14601.739743 -1295.000001
v -29606.861649 -14619.903341 -1295.000001
v -29622.997035 -14653.953013 -1295.000001
v -29598.485228 -14638.058609 -1295.000001
v -29588.526356 -14652.541281 -1295.000001
v -29608.407563 -14674.402131 -1295.000001
v -29577.261412 -14663.752938 -1295.000001
v -29590.963759 -14690.153915 -1295.000001
v -29565.365747 -14671.236445 -1295.000001
v -29553.514715 -14674.534664 -1295.000001
v -29571.648995 -14700.469235 -1295.000001
v -29542.174628 -14674.013628 -1295.000001
v -29531.8118 -14670.039368 -1295.000001
v -29509.227711 -14478.103172 -1295.000001
v -29522.106516 -14488.031505 -1295.000001
v -29492.315492 -14471.388283 -1295.000001
v -29531.410749 -14500.88156 -1295.000001
v -29473.815191 -14469.855285 -1295.000001
v -29536.844376 -14516.579229 -1295.000001
v -29454.993275 -14473.993358 -1295.000001
v -29538.111364 -14535.050403 -1295.000001
v -29491.662599 -14504.167349 -1295.000001
v -29500.922966 -14512.272792 -1295.000001
v -29505.761074 -14523.342977 -1295.000001
v -29535.228211 -14554.925122 -1295.000001
v -29504.779528 -14542.355271 -1295.000001
v -29527.672283 -14583.815525 -1295.000001
v -29496.413262 -14574.577456 -1295.000001
v -29516.173426 -14627.709326 -1295.000001
v -29486.976982 -14607.730761 -1295.000001
v -29482.785391 -14629.536417 -1295.000001
v -29515.23165 -14642.46092 -1295.000001
v -29517.667591 -14654.128735 -1295.000001
v -29483.169437 -14651.297454 -1295.000001
v -29523.266043 -14663.169356 -1295.000001
v -29551.446641 -14704.60896 -1295.000001
v -29488.649039 -14669.514418 -1295.000001
v -29531.714672 -14702.945693 -1295.000001
v -29498.953235 -14684.321287 -1295.000001
v -29513.811061 -14695.852036 -1295.000001
v -29437.11621 -14484.291682 -1295.000001
v -29477.723398 -14500.015984 -1295.000001
v -29462.333801 -14502.820106 -1295.000001
v -29420.960785 -14499.698246 -1295.000001
v -29454.361378 -14507.165719 -1295.000001
v -29446.558905 -14513.920693 -1295.000001
v -29431.463808 -14534.658724 -1295.000001
v -29407.303791 -14519.161037 -1295.000001
v -29396.351256 -14542.532792 -1295.000001
v -29421.602046 -14557.692178 -1295.000001
v -29390.824303 -14565.309981 -1295.000001
v -29419.901101 -14568.078777 -1295.000001
v -29420.353446 -14577.711958 -1295.000001
v -29422.874219 -14586.675833 -1295.000001
v -29391.012247 -14586.739986 -1295.000001
v -29427.378553 -14595.054513 -1295.000001
v -29442.337909 -14610.056287 -1295.000001
v -29424.711424 -14635.891419 -1295.000001
v -29397.204404 -14606.070187 -1295.000001
v -29408.678291 -14622.665644 -1295.000001
f 3 2 1
f 4 3 2
f 7 6 5
f 8 7 6
f 7 9 8
f 9 7 10
f 13 12 11
f 14 13 12
f 16 1 15
f 1 16 11
f 1 11 10
f 3 10 7
f 5 7 3
f 19 18 17
f 20 19 18
f 20 19 21
f 22 23 17
f 23 17 24
f 12 17 24
f 12 17 11
f 11 17 18
f 11 18 10
f 25 22 17
f 27 16 26
f 16 27 11
f 30 29 28
f 31 30 29
f 30 28 14
f 13 14 30
f 30 13 32
f 9 13 32
f 31 30 33
f 35 32 34
f 32 35 30
f 36 34 35
f 9 8 4
f 8 4 6
f 38 13 37
f 39 38 13
f 13 40 2
f 13 2 9
f 37 27 13
f 27 13 11
f 38 27 26
f 37 38 27
f 38 16 39
f 16 38 26
f 4 5 6
f 3 4 5
f 18 9 10
f 32 18 9
f 31 23 29
f 23 31 22
f 2 1 40
f 1 40 15
f 40 16 15
f 16 40 39
f 28 23 24
f 23 28 29
f 28 12 14
f 12 28 24
f 21 34 20
f 34 21 36
f 18 34 32
f 34 18 20
f 22 33 25
f 33 22 31
f 17 35 19
f 35 17 30
f 17 33 30
f 33 17 25
f 36 19 35
f 19 36 21
f 43 42 41
f 44 43 42
f 8 46 45
f 48 8 46
f 8 42 48
f 42 8 41
f 8 43 41
f 45 8 43
f 46 42 44
f 48 46 42
f 46 43 45
f 43 46 44
f 51 50 49
f 52 51 50
f 53 54 52
f 51 52 54
f 54 53 55
f 56 55 53
f 55 51 49
f 51 55 54
f 49 56 55
f 50 49 56
f 56 53 50
f 53 50 52
f 59 58 57
f 60 59 58
f 61 58 60
f 62 61 58
f 63 64 62
f 61 62 64
f 63 62 57
f 58 57 62
f 61 59 64
f 59 61 60
f 57 64 59
f 64 57 63
f 67 66 65
f 68 67 66
f 71 70 69
f 72 71 70
f 75 74 73
f 76 75 74
f 75 72 76
f 72 75 70
f 71 76 72
f 76 71 74
f 78 68 77
f 68 78 66
f 80 77 79
f 77 80 78
f 67 77 68
f 77 67 79
f 70 69 75
f 73 75 69
f 74 69 73
f 69 74 71
f 79 80 67
f 80 67 65
f 66 80 65
f 80 66 78
f 83 82 81
f 84 83 82
f 87 86 85
f 88 87 86
f 88 86 82
f 86 82 84
f 86 83 85
f 83 86 84
f 85 81 87
f 81 85 83
f 81 88 87
f 82 81 88
f 86 90 89
f 84 86 90
f 83 86 85
f 86 83 84
f 97 96 95
f 98 97 96
f 98 97 99
f 98 99 83
f 84 100 90
f 100 84 83
f 100 83 96
f 96 83 95
f 95 83 101
f 101 83 99
f 103 96 102
f 96 103 100
f 103 86 89
f 86 103 85
f 102 103 85
f 104 102 85
f 105 104 85
f 106 105 85
f 108 102 107
f 102 108 104
f 108 107 106
f 106 107 85
f 98 85 107
f 85 98 83
f 90 103 89
f 103 90 100
f 98 102 96
f 102 98 107
f 104 101 105
f 101 104 95
f 99 108 106
f 97 99 108
f 108 104 97
f 104 97 95
f 105 99 106
f 99 105 101
f 111 110 109
f 112 111 110
f 115 114 113
f 112 116 110
f 116 112 115
f 115 112 114
f 115 117 116
f 117 115 118
f 120 111 119
f 111 120 114
f 111 114 112
f 121 111 109
f 111 121 119
f 118 113 122
f 113 118 115
f 121 116 117
f 116 121 109
f 110 109 116
f 119 120 118
f 120 118 122
f 121 119 117
f 119 117 118
f 122 120 113
f 114 113 120
f 125 124 123
f 125 126 127
f 128 124 125
f 127 125 129
f 126 128 125
f 129 125 123
f 132 131 130
f 133 132 131
f 135 130 134
f 130 135 132
f 138 137 136
f 139 138 137
f 129 140 127
f 123 129 140
f 140 123 141
f 124 123 141
f 142 143 126
f 143 126 140
f 140 126 127
f 126 142 128
f 128 142 124
f 124 142 141
f 146 145 144
f 147 146 145
f 146 147 148
f 149 148 147
f 136 142 143
f 137 136 142
f 140 136 143
f 136 140 138
f 141 138 140
f 138 141 139
f 130 148 146
f 131 130 148
f 130 134 146
f 144 146 134
f 142 141 137
f 141 137 139
f 145 134 144
f 134 145 135
f 131 149 148
f 149 131 133
f 147 145 132
f 145 132 135
f 149 132 147
f 132 149 133
f 152 151 150
f 153 152 151
f 154 155 151
f 155 151 153
f 156 151 154
f 151 156 150
f 156 155 157
f 155 156 154
f 155 152 157
f 152 155 153
f 156 152 150
f 157 156 152
f 160 159 158
f 158 161 160
f 161 158 162
f 163 162 161
f 164 163 161
f 164 163 165
f 166 165 164
f 167 166 164
f 167 166 168
f 169 168 167
f 170 169 167
f 171 170 167
f 171 170 172
f 173 172 171
f 174 173 171
f 174 173 175
f 175 173 176
f 159 162 158
f 178 172 177
f 170 172 177
f 180 164 179
f 180 159 181
f 182 180 159
f 182 180 183
f 183 180 179
f 183 179 184
f 184 179 185
f 185 179 186
f 187 186 185
f 187 186 188
f 188 186 189
f 189 186 190
f 189 190 177
f 177 190 178
f 191 190 178
f 192 191 178
f 193 192 178
f 172 173 178
f 175 193 192
f 192 175 174
f 193 176 175
f 176 173 193
f 179 164 167
f 174 192 191
f 181 159 160
f 180 161 164
f 159 162 182
f 190 167 171
f 183 162 182
f 193 178 173
f 171 191 190
f 170 177 189
f 188 189 170
f 191 174 171
f 181 160 180
f 180 160 161
f 179 167 186
f 186 167 190
f 196 195 194
f 197 196 195
f 197 198 195
f 198 197 199
f 202 201 200
f 203 202 201
f 204 205 200
f 201 200 205
f 208 207 206
f 209 208 207
f 212 211 210
f 213 212 211
f 213 214 211
f 214 213 215
f 218 217 216
f 219 218 217
f 220 217 219
f 221 220 217
f 224 223 222
f 225 224 223
f 224 225 226
f 227 226 225
f 220 221 222
f 221 222 223
f 230 229 228
f 231 230 229
f 234 233 232
f 235 234 233
f 236 237 232
f 233 232 237
f 215 238 214
f 238 215 239
f 242 241 240
f 243 242 241
f 243 244 241
f 244 243 245
f 248 247 246
f 249 248 247
f 249 250 247
f 250 249 251
f 230 231 252
f 253 252 231
f 239 194 238
f 194 239 196
f 256 255 254
f 257 256 255
f 259 254 258
f 254 259 256
f 261 246 260
f 246 261 248
f 263 260 262
f 260 263 261
f 265 262 264
f 262 265 263
f 257 266 255
f 266 257 267
f 251 216 250
f 216 251 218
f 269 210 268
f 210 269 212
f 272 271 270
f 273 272 271
f 274 275 270
f 271 270 275
f 202 203 274
f 203 274 275
f 252 253 276
f 277 276 253
f 280 279 278
f 281 280 279
f 199 278 198
f 278 199 280
f 226 227 282
f 283 282 227
f 228 283 282
f 229 228 283
f 245 268 244
f 268 245 269
f 276 277 279
f 281 279 277
f 272 273 284
f 285 284 273
f 286 287 206
f 207 206 287
f 289 264 288
f 264 289 265
f 208 209 289
f 288 289 209
f 284 285 286
f 285 286 287
f 267 290 266
f 290 267 291
f 292 293 204
f 205 204 293
f 296 295 294
f 297 296 295
f 298 299 294
f 295 294 299
f 291 300 290
f 300 291 301
f 301 302 300
f 302 301 303
f 292 242 240
f 242 292 293
f 304 259 258
f 305 304 259
f 308 307 306
f 309 308 307
f 312 311 310
f 313 312 311
f 311 314 310
f 314 311 315
f 318 317 316
f 319 318 317
f 322 321 320
f 323 322 321
f 325 322 324
f 322 325 323
f 326 325 323
f 327 326 323
f 327 326 328
f 329 328 327
f 331 328 330
f 328 331 329
f 334 333 332
f 335 334 333
f 332 336 334
f 336 332 337
f 307 338 306
f 338 307 339
f 339 340 338
f 340 339 341
f 312 342 313
f 342 312 343
f 346 345 344
f 347 346 345
f 348 345 308
f 345 308 344
f 344 308 349
f 349 308 306
f 349 306 318
f 318 306 319
f 319 306 338
f 340 338 319
f 350 340 319
f 350 340 343
f 312 343 350
f 350 312 351
f 351 312 333
f 333 312 332
f 332 312 310
f 332 310 337
f 337 310 352
f 352 310 314
f 349 316 353
f 316 349 318
f 347 309 354
f 309 347 346
f 353 346 309
f 309 353 307
f 307 353 316
f 307 316 317
f 339 317 307
f 339 317 341
f 341 317 355
f 341 355 342
f 342 355 313
f 356 355 313
f 313 356 335
f 313 335 334
f 313 334 311
f 336 334 311
f 357 336 311
f 311 357 315
f 358 359 236
f 237 236 359
f 360 361 358
f 359 358 361
f 364 363 362
f 365 364 363
f 367 362 366
f 362 367 364
f 370 369 368
f 371 370 369
f 373 370 372
f 370 373 371
f 375 366 374
f 366 375 367
f 376 377 375
f 377 375 374
f 303 372 302
f 372 303 373
f 378 379 368
f 369 368 379
f 234 235 378
f 235 378 379
f 304 305 380
f 381 380 305
f 298 381 380
f 299 298 381
f 384 383 382
f 385 384 383
f 387 382 386
f 382 387 384
f 296 297 388
f 389 388 297
f 385 361 383
f 361 385 360
f 376 389 388
f 377 376 389
f 365 386 363
f 386 365 387
f 337 357 336
f 357 337 352
f 308 354 309
f 354 308 348
f 343 341 342
f 341 343 340
f 350 317 319
f 355 350 317
f 314 357 352
f 357 314 315
f 356 350 351
f 350 356 355
f 335 351 333
f 351 335 356
f 353 344 349
f 344 353 346
f 345 354 348
f 354 345 347
f 391 330 390
f 330 391 331
f 328 330 392
f 330 392 390
f 393 325 324
f 394 393 325
f 393 322 320
f 322 393 324
f 395 325 394
f 325 395 326
f 328 395 392
f 326 328 395
f 392 391 390
f 396 392 391
f 393 395 394
f 321 393 395
f 395 321 397
f 395 397 392
f 392 397 396
f 321 320 393
f 397 329 396
f 329 397 327
f 397 323 327
f 323 397 321
f 396 391 329
f 391 329 331
f 400 399 398
f 185 187 166
f 165 166 185
f 401 402 398
f 402 398 403
f 403 398 404
f 404 398 405
f 405 398 406
f 406 398 407
f 408 407 406
f 409 408 406
f 409 408 410
f 411 410 409
f 412 411 409
f 413 412 409
f 413 412 414
f 415 414 413
f 416 415 413
f 416 415 417
f 398 399 407
f 419 400 418
f 420 419 400
f 421 420 400
f 422 421 400
f 423 422 400
f 400 423 399
f 424 423 399
f 424 423 425
f 426 425 424
f 426 425 427
f 427 425 428
f 428 425 429
f 430 429 428
f 430 429 431
f 431 429 432
f 433 432 431
f 417 432 433
f 412 430 414
f 431 430 414
f 433 431 417
f 414 431 415
f 184 163 183
f 166 187 168
f 417 432 416
f 401 400 398
f 162 163 183
f 169 170 188
f 163 165 184
f 185 165 184
f 168 188 169
f 187 188 168
f 416 432 413
f 401 418 400
f 415 431 417
f 418 419 401
f 399 424 407
f 426 427 410
f 408 426 410
f 401 402 419
f 402 420 419
f 405 423 422
f 422 405 404
f 421 404 403
f 404 422 421
f 413 429 409
f 420 403 402
f 403 421 420
f 413 432 429
f 409 425 406
f 409 429 425
f 406 425 423
f 406 423 405
f 428 427 411
f 424 426 408
f 430 428 412
f 411 428 412
f 407 424 408
f 410 427 411
f 300 219 290
f 219 300 220
f 302 300 220
f 372 302 220
f 220 372 370
f 220 370 222
f 368 370 222
f 222 368 224
f 378 368 224
f 224 378 234
f 224 234 226
f 232 234 226
f 282 232 226
f 282 232 236
f 228 236 282
f 358 236 228
f 228 358 230
f 360 358 230
f 230 360 252
f 385 360 252
f 252 385 276
f 276 385 384
f 276 384 279
f 387 384 279
f 279 387 240
f 241 240 279
f 279 241 278
f 278 241 244
f 198 244 278
f 268 244 198
f 198 268 195
f 195 268 210
f 195 210 194
f 194 210 211
f 238 211 194
f 238 211 214
f 248 249 261
f 249 261 251
f 263 261 251
f 251 263 218
f 265 263 218
f 218 265 219
f 289 265 219
f 290 289 219
f 266 289 290
f 266 289 208
f 266 208 255
f 255 208 254
f 254 208 206
f 254 206 258
f 258 206 286
f 304 286 258
f 284 286 304
f 304 284 380
f 380 284 298
f 272 284 298
f 298 272 294
f 294 272 270
f 294 270 296
f 296 270 274
f 202 274 296
f 296 202 388
f 388 202 200
f 388 200 376
f 376 200 204
f 376 204 375
f 375 204 292
f 375 292 367
f 367 292 364
f 240 292 364
f 364 240 365
f 365 240 387
f 247 260 246
f 260 247 250
f 260 250 262
f 216 250 262
f 262 216 264
f 217 216 264
f 264 217 288
f 288 217 291
f 288 291 267
f 209 267 288
f 209 267 257
f 209 257 256
f 209 256 207
f 259 256 207
f 287 259 207
f 287 259 305
f 287 305 285
f 381 305 285
f 285 381 299
f 285 299 273
f 273 299 295
f 273 295 271
f 297 295 271
f 271 297 275
f 275 297 203
f 389 297 203
f 203 389 201
f 201 389 377
f 201 377 205
f 205 377 374
f 205 374 293
f 293 374 366
f 293 366 362
f 293 362 242
f 242 362 363
f 386 363 242
f 301 217 221
f 217 301 291
f 301 221 303
f 303 221 373
f 373 221 371
f 371 221 223
f 371 223 369
f 369 223 225
f 369 225 379
f 379 225 235
f 235 225 227
f 235 227 233
f 233 227 283
f 233 283 237
f 237 283 229
f 237 229 359
f 359 229 231
f 359 231 361
f 361 231 253
f 361 253 383
f 383 253 277
f 383 277 382
f 382 277 281
f 382 281 386
f 242 281 386
f 242 281 243
f 243 281 280
f 243 280 245
f 245 280 199
f 245 199 269
f 197 199 269
f 269 197 212
f 196 197 212
f 212 196 213
f 213 196 239
f 213 239 215
f 436 435 434
f 437 436 435
f 440 439 438
f 441 440 439
f 434 439 436
f 439 434 438
f 438 440 434
f 435 434 440
f 437 440 435
f 440 437 441
f 436 437 439
f 441 439 437
f 444 443 442
f 445 444 443
f 446 445 443
f 447 446 443
f 447 446 448
f 449 448 447
f 450 449 447
f 451 450 447
f 451 450 452
f 452 450 453
f 454 453 452
f 454 453 455
f 456 455 454
f 457 456 454
f 458 457 454
f 458 457 459
f 460 459 458
f 461 460 458
f 462 461 458
f 462 461 463
f 466 465 464
f 467 466 465
f 468 467 465
f 468 467 469
f 468 469 442
f 470 469 442
f 442 470 444
f 471 470 444
f 471 470 472
f 472 470 473
f 474 473 472
f 474 473 475
f 476 475 474
f 476 475 477
f 478 477 476
f 478 477 479
f 479 477 480
f 481 480 479
f 482 481 479
f 482 481 483
f 484 483 482
f 485 484 482
f 486 485 482
f 487 486 482
f 487 486 488
f 489 488 487
f 489 488 490
f 493 492 491
f 494 493 492
f 495 494 492
f 496 495 492
f 496 495 497
f 498 497 496
f 498 497 499
f 499 497 500
f 501 500 499
f 501 500 502
f 502 500 503
f 504 503 502
f 504 503 505
f 505 503 506
f 507 506 505
f 507 506 508
f 509 508 507
f 509 508 510
f 485 508 510
f 510 485 511
f 484 485 511
f 514 513 512
f 515 514 513
f 515 514 516
f 516 514 517
f 518 517 516
f 518 517 519
f 520 519 518
f 521 520 518
f 521 520 522
f 523 522 521
f 524 523 521
f 524 523 525
f 526 525 524
f 527 526 524
f 527 526 528
f 529 528 527
f 529 528 530
f 531 530 529
f 532 531 529
f 532 531 533
f 534 533 532
f 537 536 535
f 538 537 536
f 538 537 539
f 540 539 538
f 540 539 541
f 542 541 540
f 542 541 543
f 544 543 542
f 545 544 542
f 546 545 542
f 546 545 547
f 548 547 546
f 548 547 549
f 550 549 548
f 550 549 551
f 552 551 550
f 553 552 550
f 553 552 554
f 554 552 555
f 556 555 554
f 534 555 556
f 534 555 532
f 557 555 532
f 557 555 558
f 559 558 557
f 559 558 560
f 561 560 559
f 541 543 562
f 563 562 543
f 563 562 564
f 564 562 565
f 566 565 564
f 566 565 567
f 567 565 568
f 568 565 569
f 570 569 568
f 571 570 568
f 571 570 572
f 573 572 571
f 573 572 574
f 574 572 575
f 575 572 576
f 577 576 575
f 577 576 578
f 578 576 579
f 579 576 580
f 581 580 579
f 492 512 491
f 512 492 514
f 517 492 496
f 492 517 514
f 519 496 498
f 496 519 517
f 520 498 499
f 498 520 519
f 501 520 499
f 520 501 522
f 502 522 501
f 522 502 523
f 504 523 502
f 523 504 525
f 505 525 504
f 525 505 526
f 507 526 505
f 526 507 528
f 509 528 507
f 528 509 530
f 510 530 509
f 530 510 531
f 510 533 531
f 533 510 511
f 511 534 533
f 484 511 534
f 484 556 534
f 483 484 556
f 556 554 483
f 481 483 554
f 480 554 481
f 554 480 553
f 477 553 480
f 553 477 550
f 475 550 477
f 550 475 548
f 473 548 475
f 548 473 546
f 470 546 473
f 546 470 542
f 469 542 470
f 542 469 540
f 540 538 469
f 467 469 538
f 538 536 467
f 466 467 536
f 466 535 536
f 535 466 464
f 535 537 464
f 465 464 537
f 465 539 537
f 539 465 468
f 468 541 539
f 442 468 541
f 443 541 442
f 541 443 562
f 447 562 443
f 562 447 565
f 451 565 447
f 565 451 569
f 452 569 451
f 569 452 570
f 454 570 452
f 570 454 572
f 458 572 454
f 572 458 576
f 580 458 462
f 458 580 576
f 581 462 463
f 462 581 580
f 461 463 579
f 581 579 463
f 460 579 461
f 579 460 578
f 578 577 460
f 459 460 577
f 577 575 459
f 457 459 575
f 575 574 457
f 456 457 574
f 455 574 456
f 574 455 573
f 453 573 455
f 573 453 571
f 450 571 453
f 571 450 568
f 449 568 450
f 568 449 567
f 448 567 449
f 567 448 566
f 446 566 448
f 566 446 564
f 445 446 563
f 564 563 446
f 444 445 543
f 563 543 445
f 544 444 471
f 444 544 543
f 545 471 472
f 471 545 544
f 474 545 472
f 545 474 547
f 476 547 474
f 547 476 549
f 478 549 476
f 549 478 551
f 479 551 478
f 551 479 552
f 482 552 479
f 552 482 555
f 558 482 487
f 482 558 555
f 560 487 489
f 487 560 558
f 561 489 490
f 489 561 560
f 488 490 559
f 561 559 490
f 486 488 557
f 559 557 488
f 485 486 532
f 557 532 486
f 508 532 485
f 532 508 529
f 506 529 508
f 529 506 527
f 503 527 506
f 527 503 524
f 500 524 503
f 524 500 521
f 497 521 500
f 521 497 518
f 495 518 497
f 518 495 516
f 516 515 495
f 494 495 515
f 515 513 494
f 493 494 513
f 493 512 513
f 512 493 491
